<svg xmlns="http://www.w3.org/2000/svg" xmlns:xlink="http://www.w3.org/1999/xlink" width="500" zoomAndPan="magnify" viewBox="0 0 375 374.999991" height="500" preserveAspectRatio="xMidYMid meet" version="1.0"><defs><g/><clipPath id="63e539bb7b"><path d="M 90.117188 112 L 93 112 L 93 129 L 90.117188 129 Z M 90.117188 112 " clip-rule="nonzero"/></clipPath><clipPath id="1491662893"><path d="M 202 256 L 211 256 L 211 257.542969 L 202 257.542969 Z M 202 256 " clip-rule="nonzero"/></clipPath><clipPath id="557bf29eaa"><path d="M 211 255 L 219 255 L 219 257.542969 L 211 257.542969 Z M 211 255 " clip-rule="nonzero"/></clipPath><clipPath id="d15e53f669"><path d="M 224 257 L 230 257 L 230 257.542969 L 224 257.542969 Z M 224 257 " clip-rule="nonzero"/></clipPath><clipPath id="c7deb49404"><path d="M 157 14.542969 L 165 14.542969 L 165 19 L 157 19 Z M 157 14.542969 " clip-rule="nonzero"/></clipPath><clipPath id="08d21229a4"><path d="M 0.839844 79 L 186.839844 79 L 186.839844 108.601562 L 0.839844 108.601562 Z M 0.839844 79 " clip-rule="nonzero"/></clipPath><clipPath id="829ad61a6a"><rect x="0" width="187" y="0" height="30"/></clipPath><clipPath id="4cfe0e7139"><rect x="0" width="187" y="0" height="109"/></clipPath></defs><path fill="#0aa8a7" d="M 132.859375 222.625 C 130.613281 220.3125 126.679688 216.503906 125.0625 215.484375 C 124.976562 215.4375 124.84375 215.402344 124.746094 215.402344 C 124.773438 216.496094 134.992188 226.394531 136.136719 226.433594 C 136.105469 226.035156 134.339844 224.140625 132.859375 222.625 " fill-opacity="1" fill-rule="nonzero"/><path fill="#0aa8a7" d="M 146.132812 232.207031 C 143.769531 230.191406 139.488281 226.894531 137.375 226.074219 C 137.21875 226.03125 136.984375 225.96875 136.902344 226.042969 C 136.492188 226.410156 139.179688 228.941406 141.941406 231.070312 C 145.484375 233.796875 148.714844 235.785156 149.292969 235.589844 C 149.484375 235.160156 147.394531 233.289062 146.132812 232.207031 " fill-opacity="1" fill-rule="nonzero"/><path fill="#0aa8a7" d="M 101.960938 180.628906 C 101.910156 180.578125 101.816406 180.523438 101.746094 180.523438 C 101.726562 181.957031 108.550781 195.007812 109.355469 195.070312 C 109.363281 194.492188 108 191.636719 107.1875 189.984375 C 105.765625 187.097656 103.089844 182.007812 101.960938 180.628906 " fill-opacity="1" fill-rule="nonzero"/><path fill="#0aa8a7" d="M 110.457031 194.636719 C 110.316406 194.570312 110.140625 194.488281 110.050781 194.578125 C 109.164062 195.480469 117.179688 207.324219 119.078125 207.917969 C 119.8125 208.148438 119.011719 206.179688 117.132812 203.136719 C 115.375 200.289062 112.144531 195.769531 110.457031 194.636719 " fill-opacity="1" fill-rule="nonzero"/><path fill="#0aa8a7" d="M 129.117188 214.875 C 127.175781 212.285156 123.4375 208.222656 121.191406 207.304688 C 121.003906 207.253906 120.75 207.191406 120.605469 207.292969 C 119.0625 208.363281 128.09375 218.929688 130.886719 219.324219 C 131.914062 219.46875 131.1875 217.636719 129.117188 214.875 " fill-opacity="1" fill-rule="nonzero"/><path fill="#0aa8a7" d="M 95.941406 165.40625 C 96.03125 165.6875 96.167969 166.097656 96.339844 166.605469 C 96.207031 166.195312 96.066406 165.785156 95.941406 165.398438 L 95.941406 165.40625 " fill-opacity="1" fill-rule="nonzero"/><path fill="#0aa8a7" d="M 105.882812 185.453125 C 106.957031 186.058594 106.769531 183.644531 105.445312 179.835938 C 104.304688 176.550781 101.929688 171.375 100.226562 170.164062 C 100.128906 170.121094 99.984375 170.050781 99.875 170.070312 C 98.101562 170.410156 103.4375 184.066406 105.882812 185.453125 " fill-opacity="1" fill-rule="nonzero"/><path fill="#0aa8a7" d="M 115.859375 198.851562 C 117.324219 199.339844 117.222656 197.03125 115.613281 193.484375 C 114.222656 190.417969 111.210938 185.644531 108.867188 184.628906 C 108.664062 184.585938 108.390625 184.519531 108.183594 184.648438 C 106.128906 185.9375 112.515625 197.75 115.859375 198.851562 " fill-opacity="1" fill-rule="nonzero"/><path fill="#0aa8a7" d="M 127.574219 210.78125 C 129.710938 211.484375 129.878906 209.234375 127.941406 205.769531 C 126.117188 202.492188 122.507812 198.515625 119.867188 197.804688 C 119.609375 197.777344 119.261719 197.738281 118.992188 197.878906 C 116.46875 199.210938 123.207031 209.339844 127.574219 210.78125 " fill-opacity="1" fill-rule="nonzero"/><path fill="#0aa8a7" d="M 94.21875 154.640625 C 94.164062 154.589844 94.078125 154.53125 94.007812 154.511719 C 92.9375 155.175781 97.140625 170.488281 98.503906 170.894531 C 99.042969 170.558594 98.050781 166.25 97.734375 164.9375 C 96.957031 161.71875 95.3125 156.074219 94.21875 154.640625 " fill-opacity="1" fill-rule="nonzero"/><path fill="#0aa8a7" d="M 104.96875 174.671875 C 106.695312 175.625 107.324219 172.867188 106.371094 168.523438 C 105.609375 165.066406 103.5 159.726562 101.1875 158.679688 C 101.03125 158.644531 100.816406 158.601562 100.660156 158.636719 C 97.6875 159.285156 101.269531 172.625 104.96875 174.671875 " fill-opacity="1" fill-rule="nonzero"/><path fill="#0aa8a7" d="M 114.699219 188.402344 C 117.167969 189.65625 118.140625 186.945312 116.777344 182.601562 C 115.746094 179.308594 112.945312 174.289062 109.941406 173.4375 C 109.742188 173.414062 109.464844 173.390625 109.269531 173.4375 C 105.75 174.269531 110.011719 186.019531 114.699219 188.402344 " fill-opacity="1" fill-rule="nonzero"/><path fill="#0aa8a7" d="M 126.476562 200.789062 C 129.726562 202.285156 131.089844 199.6875 129.335938 195.339844 C 128.09375 192.261719 124.753906 187.65625 121.21875 187.046875 C 120.898438 187.039062 120.457031 187.027344 120.0625 187.210938 C 116.765625 188.773438 121.324219 198.417969 126.476562 200.789062 " fill-opacity="1" fill-rule="nonzero"/><path fill="#0aa8a7" d="M 97.390625 159.597656 C 98.613281 160.6875 99.171875 157.964844 98.632812 153.535156 C 98.214844 150.070312 96.894531 144.652344 95.273438 143.445312 C 95.164062 143.398438 95.007812 143.335938 94.894531 143.359375 C 92.691406 143.753906 94.769531 157.257812 97.390625 159.597656 " fill-opacity="1" fill-rule="nonzero"/><path fill="#0aa8a7" d="M 109.984375 156.300781 C 109.601562 152.816406 107.761719 147.527344 104.855469 146.671875 C 104.648438 146.652344 104.363281 146.632812 104.164062 146.679688 C 100.574219 147.515625 102.082031 159.324219 106.183594 162.46875 C 108.691406 164.394531 110.539062 161.398438 109.984375 156.300781 " fill-opacity="1" fill-rule="nonzero"/><path fill="#0aa8a7" d="M 120.429688 170.425781 C 119.734375 166.945312 117.171875 161.757812 113.65625 161.117188 C 113.402344 161.113281 113.058594 161.113281 112.816406 161.175781 C 108.734375 162.226562 110.886719 173.09375 115.847656 176.476562 C 119.230469 178.785156 121.5 175.789062 120.429688 170.425781 " fill-opacity="1" fill-rule="nonzero"/><path fill="#0aa8a7" d="M 132.957031 183.558594 C 132.03125 180.238281 128.921875 175.378906 124.921875 174.964844 C 124.636719 174.976562 124.253906 174.996094 123.980469 175.074219 C 119.5 176.351562 122.4375 186.65625 128.113281 189.582031 C 131.964844 191.5625 134.363281 188.582031 132.957031 183.558594 " fill-opacity="1" fill-rule="nonzero"/><path fill="#0aa8a7" d="M 99.089844 147.820312 C 100.824219 149.3125 102.285156 146.445312 102.214844 141.683594 C 102.164062 138.21875 101.113281 132.878906 98.941406 131.859375 C 98.78125 131.828125 98.5625 131.789062 98.402344 131.820312 C 95.304688 132.464844 95.84375 145.023438 99.089844 147.820312 " fill-opacity="1" fill-rule="nonzero"/><path fill="#0aa8a7" d="M 115.980469 143.542969 C 115.910156 140.046875 114.308594 134.839844 110.964844 134.210938 C 110.839844 134.210938 110.667969 134.195312 110.542969 134.207031 C 106.101562 134.523438 105.605469 145.175781 109.835938 149.40625 C 112.878906 152.449219 116.09375 149.382812 115.980469 143.542969 " fill-opacity="1" fill-rule="nonzero"/><path fill="#0aa8a7" d="M 126.191406 157.257812 C 125.816406 153.742188 123.53125 148.609375 119.636719 148.1875 C 119.488281 148.191406 119.296875 148.191406 119.152344 148.207031 C 114.128906 148.808594 114.53125 159.542969 119.722656 163.527344 C 123.429688 166.363281 126.8125 163.085938 126.191406 157.257812 " fill-opacity="1" fill-rule="nonzero"/><path fill="#0aa8a7" d="M 138.554688 170.453125 C 137.90625 166.949219 135.03125 161.917969 130.660156 161.707031 C 130.5 161.722656 130.28125 161.726562 130.121094 161.753906 C 124.960938 162.570312 125.714844 172.539062 131.238281 176.570312 C 135.710938 179.832031 139.675781 176.515625 138.554688 170.453125 " fill-opacity="1" fill-rule="nonzero"/><path fill="#0aa8a7" d="M 102.945312 135.269531 C 105.148438 137.820312 107.816406 134.871094 108.230469 129.425781 C 108.492188 125.976562 107.652344 120.757812 104.972656 119.941406 C 104.871094 119.929688 104.734375 119.90625 104.632812 119.910156 C 100.90625 119.972656 99.644531 131.457031 102.945312 135.269531 " fill-opacity="1" fill-rule="nonzero"/><path fill="#0aa8a7" d="M 115.90625 136.429688 C 119.046875 139.980469 123.273438 136.773438 123.574219 130.613281 C 123.742188 127.128906 122.355469 122.039062 118.734375 121.625 C 113.308594 121.859375 112.175781 132.203125 115.90625 136.429688 " fill-opacity="1" fill-rule="nonzero"/><path fill="#0aa8a7" d="M 133.5625 143.851562 C 133.429688 140.332031 131.371094 135.277344 127.195312 135.058594 C 121.097656 135.589844 120.847656 146.066406 125.476562 150.117188 C 129.335938 153.492188 133.792969 150.039062 133.5625 143.851562 " fill-opacity="1" fill-rule="nonzero"/><path fill="#0aa8a7" d="M 136.683594 162.875 C 141.300781 166.851562 146.433594 163.316406 145.6875 156.675781 C 145.292969 153.140625 142.640625 148.152344 137.996094 148.136719 C 131.671875 148.917969 131.710938 158.597656 136.683594 162.875 " fill-opacity="1" fill-rule="nonzero"/><path fill="#0aa8a7" d="M 116.019531 117.070312 C 116.519531 113.65625 115.863281 108.578125 112.847656 107.984375 C 108.042969 107.921875 106.074219 119.003906 109.171875 122.855469 C 111.59375 125.871094 115.179688 122.84375 116.019531 117.070312 " fill-opacity="1" fill-rule="nonzero"/><path fill="#0aa8a7" d="M 155.195312 221.742188 C 158.980469 222.699219 160.484375 220.3125 158.410156 216.628906 C 156.941406 214.023438 153.003906 210.289062 148.847656 210.144531 C 148.28125 210.1875 147.695312 210.230469 147.125 210.628906 C 143.910156 212.867188 149.265625 220.242188 155.195312 221.742188 " fill-opacity="1" fill-rule="nonzero"/><path fill="#0aa8a7" d="M 162.109375 205.855469 C 160.933594 202.980469 157.195312 198.941406 152.566406 198.972656 C 152.136719 199.019531 151.550781 199.089844 151 199.351562 C 146.773438 201.347656 150.101562 209.027344 156.234375 211.433594 C 160.957031 213.289062 163.976562 210.421875 162.109375 205.855469 " fill-opacity="1" fill-rule="nonzero"/><path fill="#0aa8a7" d="M 167.703125 193.671875 C 166.777344 190.539062 163.210938 186.21875 158.183594 186.425781 C 158 186.457031 157.753906 186.480469 157.570312 186.519531 C 152.039062 187.6875 153.054688 195.894531 159.171875 199.433594 C 164.59375 202.566406 169.375 199.335938 167.703125 193.671875 " fill-opacity="1" fill-rule="nonzero"/><path fill="#0aa8a7" d="M 165.375 172.574219 C 165.179688 172.613281 164.914062 172.648438 164.71875 172.695312 C 158.746094 174.136719 159.082031 183.039062 165.253906 186.699219 C 170.679688 189.921875 176.152344 186.183594 174.851562 180.144531 C 174.125 176.773438 170.707031 172.195312 165.375 172.574219 " fill-opacity="1" fill-rule="nonzero"/><path fill="#0aa8a7" d="M 156.105469 230.425781 C 158.699219 230.761719 159.019531 228.800781 156.835938 225.960938 C 155.046875 223.632812 150.894531 220.21875 147.269531 219.902344 C 146.785156 219.914062 146.285156 219.925781 145.871094 220.246094 C 143.308594 222.226562 150.863281 229.742188 156.105469 230.425781 " fill-opacity="1" fill-rule="nonzero"/><path fill="#0aa8a7" d="M 158.941406 237.542969 C 160.386719 237.511719 159.828125 236.023438 157.550781 233.839844 C 155.558594 231.9375 151.210938 228.734375 148.011719 228.246094 C 147.613281 228.230469 147.199219 228.210938 146.945312 228.457031 C 145.257812 230.074219 155.234375 237.636719 158.941406 237.542969 " fill-opacity="1" fill-rule="nonzero"/><path fill="#0aa8a7" d="M 141.441406 201.359375 C 146.324219 203.757812 149.507812 200.59375 147.632812 195.203125 C 146.460938 191.828125 142.667969 186.988281 137.910156 186.792969 C 137.570312 186.820312 137.117188 186.859375 136.792969 186.957031 C 131.78125 188.460938 134.90625 198.152344 141.441406 201.359375 " fill-opacity="1" fill-rule="nonzero"/><path fill="#0aa8a7" d="M 140.5625 212.335938 C 144.40625 213.644531 146 210.894531 143.902344 206.566406 C 142.402344 203.46875 138.382812 198.925781 134.128906 198.53125 C 133.742188 198.539062 133.210938 198.558594 132.738281 198.777344 C 128.699219 200.660156 134.179688 210.164062 140.5625 212.335938 " fill-opacity="1" fill-rule="nonzero"/><path fill="#0aa8a7" d="M 97.707031 126.949219 C 98.019531 123.242188 97.734375 117.46875 96.128906 116.234375 C 96.007812 116.1875 95.832031 116.132812 95.707031 116.152344 C 92.984375 116.625 92.207031 131.078125 94.773438 133.53125 C 95.984375 134.691406 97.300781 131.738281 97.707031 126.949219 " fill-opacity="1" fill-rule="nonzero"/><path fill="#0aa8a7" d="M 92.308594 127.316406 C 92.238281 127.257812 92.132812 127.175781 92.046875 127.183594 C 90.410156 127.363281 91.152344 143.089844 92.878906 144.898438 C 93.609375 145.660156 94.09375 142.859375 94.003906 138.378906 C 93.925781 134.648438 93.351562 128.75 92.308594 127.316406 " fill-opacity="1" fill-rule="nonzero"/><path fill="#0aa8a7" d="M 152.703125 182.464844 C 151.878906 179.117188 148.578125 174.402344 143.8125 174.40625 C 143.46875 174.449219 143.003906 174.511719 142.675781 174.621094 C 137.648438 176.277344 139.164062 185.179688 145.058594 188.625 C 149.957031 191.488281 154.097656 188.148438 152.703125 182.464844 " fill-opacity="1" fill-rule="nonzero"/><path fill="#0aa8a7" d="M 150.527344 174.984375 C 155.65625 178.636719 160.996094 174.917969 159.886719 168.464844 C 159.28125 164.9375 156.15625 160.054688 151.109375 160.246094 C 150.921875 160.273438 150.671875 160.300781 150.484375 160.339844 C 144.761719 161.59375 144.785156 170.898438 150.527344 174.984375 " fill-opacity="1" fill-rule="nonzero"/><path fill="#0aa8a7" d="M 141.292969 221.234375 C 143.757812 221.753906 144.03125 219.65625 141.917969 216.460938 C 140.207031 213.875 136.277344 209.984375 132.898438 209.441406 C 132.449219 209.425781 131.984375 209.410156 131.601562 209.726562 C 129.292969 211.628906 136.542969 220.234375 141.292969 221.234375 " fill-opacity="1" fill-rule="nonzero"/><path fill="#0aa8a7" d="M 144.273438 229.109375 C 145.558594 229.164062 144.933594 227.476562 142.746094 225.011719 C 140.691406 222.6875 136.554688 219.101562 133.8125 218.402344 C 133.449219 218.355469 133.109375 218.3125 132.910156 218.5625 C 131.605469 220.207031 141.058594 228.980469 144.273438 229.109375 " fill-opacity="1" fill-rule="nonzero"/><g clip-path="url(#63e539bb7b)"><path fill="#0aa8a7" d="M 91.949219 112.46875 C 91.9375 112.4375 91.917969 112.390625 91.902344 112.359375 C 91.871094 112.355469 91.824219 112.355469 91.792969 112.351562 C 90.9375 113.789062 90.117188 126.902344 90.777344 128.480469 C 90.8125 128.484375 90.855469 128.484375 90.890625 128.484375 C 91.265625 127.800781 91.578125 124.535156 91.730469 122.648438 C 91.988281 119.476562 92.277344 113.914062 91.949219 112.46875 " fill-opacity="1" fill-rule="nonzero"/></g><path fill="#0aa8a7" d="M 95.402344 111.785156 C 96.03125 108.449219 96.558594 103.203125 95.753906 101.984375 C 95.691406 101.9375 95.589844 101.871094 95.507812 101.878906 C 93.746094 102.074219 91.492188 116.097656 92.96875 117.671875 C 93.597656 118.339844 94.640625 115.808594 95.402344 111.785156 " fill-opacity="1" fill-rule="nonzero"/><path fill="#0aa8a7" d="M 101.359375 100.699219 C 102.292969 97.425781 103.054688 92.351562 101.8125 91.320312 C 101.757812 91.300781 101.691406 91.265625 101.632812 91.257812 C 99.210938 90.859375 95.621094 103.425781 97.316406 106.367188 C 98.195312 107.886719 100.042969 105.292969 101.359375 100.699219 " fill-opacity="1" fill-rule="nonzero"/><path fill="#0aa8a7" d="M 103.867188 95.023438 C 104.910156 96.925781 107.488281 94.273438 109.277344 89.457031 C 110.464844 86.265625 111.410156 81.394531 109.800781 80.5625 C 106.789062 80.027344 102.019531 91.648438 103.867188 95.023438 " fill-opacity="1" fill-rule="nonzero"/><path fill="#0aa8a7" d="M 103.433594 114.871094 C 104.035156 111.496094 104.011719 106.316406 102.070312 105.371094 C 101.992188 105.359375 101.886719 105.328125 101.808594 105.324219 C 98.671875 105.15625 96.363281 117.199219 98.875 120.660156 C 100.328125 122.671875 102.542969 119.855469 103.433594 114.871094 " fill-opacity="1" fill-rule="nonzero"/><path fill="#0aa8a7" d="M 105.34375 108.613281 C 107.011719 111.066406 110.085938 108.1875 111.4375 102.910156 C 112.285156 99.59375 112.429688 94.589844 110.085938 93.851562 C 105.902344 93.519531 102.984375 105.140625 105.34375 108.613281 " fill-opacity="1" fill-rule="nonzero"/><path fill="#0aa8a7" d="M 132.96875 116.59375 C 133.320312 113.160156 132.105469 108.230469 128.304688 108.023438 C 122.964844 108.507812 120.890625 118.035156 124.074219 122.28125 C 127.152344 126.382812 132.308594 123.089844 132.96875 116.59375 " fill-opacity="1" fill-rule="nonzero"/><path fill="#0aa8a7" d="M 142.734375 129.257812 C 142.785156 125.765625 140.898438 120.835938 136.546875 120.8125 C 130.4375 121.585938 129.175781 131.1875 133.320312 135.433594 C 137.183594 139.394531 142.640625 135.8125 142.734375 129.257812 " fill-opacity="1" fill-rule="nonzero"/><path fill="#0aa8a7" d="M 144.785156 148.230469 C 149.320312 152.011719 155.027344 148.171875 154.636719 141.609375 C 154.425781 138.074219 151.953125 133.179688 147.117188 133.351562 C 140.457031 134.398438 139.871094 144.128906 144.785156 148.230469 " fill-opacity="1" fill-rule="nonzero"/><path fill="#0aa8a7" d="M 159.707031 145.550781 C 153.074219 146.777344 152.613281 155.875 157.503906 160.085938 C 162.574219 164.453125 169.140625 160.492188 168.316406 153.570312 C 167.894531 150.019531 164.941406 145.1875 159.707031 145.550781 " fill-opacity="1" fill-rule="nonzero"/><path fill="#0aa8a7" d="M 122.628906 95.117188 C 117.714844 95.363281 114.925781 105.449219 117.628906 109.390625 C 120.003906 112.859375 124.417969 109.738281 125.636719 103.730469 C 126.3125 100.382812 125.828125 95.496094 122.628906 95.117188 " fill-opacity="1" fill-rule="nonzero"/><path fill="#0aa8a7" d="M 113.660156 96.347656 C 115.382812 99.203125 119.183594 96.296875 120.925781 90.792969 C 121.949219 87.558594 122.234375 82.765625 119.667969 82.242188 C 115.246094 82.226562 111.484375 92.730469 113.660156 96.347656 " fill-opacity="1" fill-rule="nonzero"/><path fill="#0aa8a7" d="M 126.484375 162.898438 L 126.429688 162.992188 L 126.441406 163 Z M 126.484375 162.898438 " fill-opacity="1" fill-rule="nonzero"/><path fill="#0aa8a7" d="M 129.746094 176.222656 L 129.847656 176.308594 L 129.757812 176.222656 C 129.753906 176.222656 129.75 176.222656 129.746094 176.222656 " fill-opacity="1" fill-rule="nonzero"/><path fill="#0aa8a7" d="M 171.082031 219.800781 C 175.960938 221.714844 179.332031 219.085938 177.417969 214.863281 C 176.285156 212.375 172.664062 208.957031 168.152344 209.15625 C 167.683594 209.230469 167.097656 209.316406 166.539062 209.601562 C 162.773438 211.507812 165.492188 217.609375 171.082031 219.800781 " fill-opacity="1" fill-rule="nonzero"/><path fill="#0aa8a7" d="M 170.355469 229.636719 C 174.0625 230.355469 175.585938 228.132812 173.550781 224.972656 C 172.234375 222.933594 168.585938 219.71875 164.386719 219.765625 C 164.105469 219.78125 163.261719 219.839844 162.605469 220.316406 C 159.648438 222.449219 164.71875 228.546875 170.355469 229.636719 " fill-opacity="1" fill-rule="nonzero"/><path fill="#0aa8a7" d="M 152.019531 115.101562 C 152.199219 111.828125 150.554688 107.273438 146.335938 107.394531 C 141.191406 107.9375 138.667969 116.234375 142.304688 120.648438 C 145.765625 124.847656 151.667969 121.480469 152.019531 115.101562 " fill-opacity="1" fill-rule="nonzero"/><path fill="#0aa8a7" d="M 138.253906 95.296875 C 133.171875 95.960938 130.8125 104.574219 133.589844 108.40625 C 136.332031 112.179688 141.464844 109.214844 142.449219 103.292969 C 142.996094 100.023438 142.054688 95.382812 138.253906 95.296875 " fill-opacity="1" fill-rule="nonzero"/><path fill="#0aa8a7" d="M 94.121094 101.859375 C 94.695312 101.550781 95.714844 98.386719 96.269531 96.527344 C 96.488281 95.792969 98.402344 89.300781 98.121094 87.71875 C 98.09375 87.671875 98.046875 87.609375 97.996094 87.59375 C 97.96875 87.601562 97.933594 87.613281 97.90625 87.628906 C 96.59375 88.515625 93.125 101.546875 94.121094 101.859375 " fill-opacity="1" fill-rule="nonzero"/><path fill="#0aa8a7" d="M 182.890625 203.105469 C 181.988281 200.550781 178.839844 196.894531 173.878906 197.277344 C 173.503906 197.347656 173.003906 197.4375 172.644531 197.566406 C 168.011719 199.21875 169.363281 205.917969 174.875 208.597656 C 179.625 210.90625 184.75 208.363281 182.890625 203.105469 " fill-opacity="1" fill-rule="nonzero"/><path fill="#0aa8a7" d="M 162.851562 242.816406 C 163.539062 242.703125 161.996094 241.390625 160.324219 240.199219 C 158.425781 238.847656 154.171875 236.125 151.660156 235.507812 C 151.359375 235.46875 151.101562 235.433594 151.035156 235.601562 C 150.5625 236.789062 160.945312 243.125 162.851562 242.816406 " fill-opacity="1" fill-rule="nonzero"/><path fill="#0aa8a7" d="M 170.914062 237.515625 C 173.523438 237.695312 173.875 236.089844 171.757812 233.695312 C 170.367188 232.125 166.703125 229.121094 162.78125 229.003906 C 162.253906 229.039062 161.761719 229.074219 161.347656 229.382812 C 158.953125 231.171875 166.015625 237.175781 170.914062 237.515625 " fill-opacity="1" fill-rule="nonzero"/><path fill="#0aa8a7" d="M 127.4375 96.058594 C 129.339844 98.863281 133.785156 96.71875 135.253906 91.070312 C 135.792969 89 136.386719 83.574219 132.71875 83.3125 C 128.078125 83.746094 125.101562 92.617188 127.4375 96.058594 " fill-opacity="1" fill-rule="nonzero"/><path fill="#0aa8a7" d="M 102.222656 86.261719 C 103.199219 83.859375 104.878906 79.015625 104.226562 77.878906 C 104.195312 77.855469 104.152344 77.816406 104.117188 77.804688 C 102.621094 77.289062 97.878906 89.160156 98.777344 91.175781 C 99.214844 92.15625 100.664062 90.09375 102.222656 86.261719 " fill-opacity="1" fill-rule="nonzero"/><path fill="#0aa8a7" d="M 156.765625 119.503906 C 150.496094 120.660156 149.921875 129.082031 153.398438 132.707031 C 157.128906 136.597656 163.726562 133.859375 163.558594 126.949219 C 163.449219 122.414062 160.402344 119.074219 156.765625 119.503906 " fill-opacity="1" fill-rule="nonzero"/><path fill="#0aa8a7" d="M 182.644531 165.070312 C 182.105469 161.980469 179.375 157.570312 174.058594 158.097656 C 167.769531 159.089844 167.667969 167.792969 172.539062 171.410156 C 177.199219 174.875 183.8125 171.78125 182.644531 165.070312 " fill-opacity="1" fill-rule="nonzero"/><path fill="#0aa8a7" d="M 180.488281 195.769531 C 185.625 198.984375 191.304688 195.660156 189.984375 190.207031 C 189.058594 186.375 184.925781 183.507812 181.144531 184.066406 C 180.953125 184.109375 180.691406 184.148438 180.503906 184.203125 C 175.292969 185.589844 175.28125 192.507812 180.488281 195.769531 " fill-opacity="1" fill-rule="nonzero"/><path fill="#0aa8a7" d="M 119.195312 70.273438 C 115.917969 70.066406 111.445312 79.816406 112.691406 82.675781 C 113.589844 84.746094 116.554688 82.441406 118.5625 78.105469 C 119.792969 75.453125 121.050781 70.980469 119.195312 70.273438 " fill-opacity="1" fill-rule="nonzero"/><path fill="#0aa8a7" d="M 173.414062 243.835938 C 174.691406 243.726562 174.257812 242.542969 172.363281 240.953125 C 169.785156 238.792969 165.632812 236.820312 163.476562 236.726562 C 163.082031 236.738281 162.707031 236.742188 162.464844 236.972656 C 160.84375 238.496094 169.851562 244.140625 173.414062 243.835938 " fill-opacity="1" fill-rule="nonzero"/><path fill="#0aa8a7" d="M 129.847656 71.402344 C 126.171875 71.644531 122.039062 79.683594 123.703125 83.351562 C 125.035156 86.277344 129.050781 83.558594 130.867188 78.503906 C 131.859375 75.753906 132.195312 71.734375 129.847656 71.402344 " fill-opacity="1" fill-rule="nonzero"/><path fill="#0aa8a7" d="M 105.664062 80.492188 C 106.148438 81.777344 108.28125 79.496094 110.230469 75.609375 C 111.535156 73.011719 113.066406 68.808594 112.21875 68.023438 C 112.214844 68.019531 112.210938 68.015625 112.203125 68.011719 C 110.238281 67.25 104.671875 77.863281 105.664062 80.492188 " fill-opacity="1" fill-rule="nonzero"/><path fill="#0aa8a7" d="M 169.207031 131.382812 C 163.570312 132.265625 161.960938 140.496094 166.632812 144.527344 C 171.214844 148.480469 177.429688 144.742188 176.863281 138.378906 C 176.578125 135.199219 174.015625 130.925781 169.207031 131.382812 " fill-opacity="1" fill-rule="nonzero"/><path fill="#0aa8a7" d="M 192.601562 223.058594 C 191.421875 220.210938 187.242188 217.890625 184 218.285156 C 183.703125 218.335938 183.304688 218.414062 183.019531 218.511719 C 179.425781 219.792969 180.324219 224.640625 185.832031 226.976562 C 190.75 229.0625 194.015625 226.460938 192.601562 223.058594 " fill-opacity="1" fill-rule="nonzero"/><path fill="#0aa8a7" d="M 188.644531 232.390625 C 187.421875 230.515625 183.777344 228.015625 180.128906 228.183594 C 179.472656 228.25 178.933594 228.433594 178.527344 228.726562 C 175.953125 230.597656 179.898438 235.15625 185.027344 236.230469 C 188.964844 237.054688 190.226562 234.804688 188.644531 232.390625 " fill-opacity="1" fill-rule="nonzero"/><path fill="#0aa8a7" d="M 156.382812 94.082031 C 152.136719 94.640625 149.0625 101.855469 152.4375 105.992188 C 155.554688 109.8125 160.988281 106.8125 161.523438 100.976562 C 161.804688 97.949219 160.171875 93.867188 156.382812 94.082031 " fill-opacity="1" fill-rule="nonzero"/><path fill="#0aa8a7" d="M 152.273438 89.523438 C 152.933594 85.726562 151.125 82.472656 148.472656 82.695312 C 144.03125 83.4375 141.230469 90.84375 144.003906 94.519531 C 146.652344 98.03125 151.410156 94.441406 152.273438 89.523438 " fill-opacity="1" fill-rule="nonzero"/><path fill="#0aa8a7" d="M 105.714844 72.496094 C 106.265625 71.472656 109.003906 66.324219 108.90625 65.039062 C 108.890625 65.015625 108.878906 64.980469 108.859375 64.964844 C 108 64.328125 102.238281 75.261719 102.691406 76.660156 C 102.871094 77.214844 104.03125 75.617188 105.714844 72.496094 " fill-opacity="1" fill-rule="nonzero"/><path fill="#0aa8a7" d="M 137.871094 82.648438 C 139.546875 85.566406 144.039062 83.34375 145.425781 77.828125 C 146.054688 75.324219 145.957031 71.578125 143.109375 71.523438 C 138.984375 72.078125 136.054688 79.484375 137.871094 82.648438 " fill-opacity="1" fill-rule="nonzero"/><path fill="#0aa8a7" d="M 166.644531 105.539062 C 161.679688 106.316406 159.683594 114.039062 163.507812 117.691406 C 167.21875 121.234375 172.980469 117.714844 172.847656 111.984375 C 172.785156 109.269531 171.046875 105.121094 166.644531 105.539062 " fill-opacity="1" fill-rule="nonzero"/><path fill="#0aa8a7" d="M 198.03125 211.683594 C 196.847656 208.628906 193.164062 206.546875 189.816406 207.042969 C 189.484375 207.109375 189.042969 207.199219 188.730469 207.316406 C 184.53125 208.820312 185.457031 214.28125 190.296875 216.585938 C 195.15625 218.898438 199.707031 216.011719 198.03125 211.683594 " fill-opacity="1" fill-rule="nonzero"/><path fill="#0aa8a7" d="M 186.714844 240.289062 C 184.648438 238.160156 180.949219 236.535156 178.46875 236.671875 C 178.054688 236.714844 177.363281 236.789062 176.976562 237.195312 C 175.320312 238.941406 181.476562 243.304688 185.761719 243.421875 C 188.140625 243.488281 188.542969 242.171875 186.714844 240.289062 " fill-opacity="1" fill-rule="nonzero"/><path fill="#0aa8a7" d="M 129.589844 60.011719 C 126.863281 59.761719 121.785156 67.871094 122.800781 70.859375 C 123.511719 72.957031 126.65625 71.25 129.023438 66.566406 C 130.074219 64.484375 131.542969 60.441406 129.589844 60.011719 " fill-opacity="1" fill-rule="nonzero"/><path fill="#0aa8a7" d="M 177.351562 248.621094 C 177.957031 248.496094 177.046875 247.691406 174.921875 246.472656 C 174.398438 246.171875 169.71875 243.519531 166.765625 243.097656 C 166.453125 243.082031 166.160156 243.066406 166.0625 243.214844 C 165.386719 244.214844 175.414062 249.015625 177.351562 248.621094 " fill-opacity="1" fill-rule="nonzero"/><path fill="#0aa8a7" d="M 205.226562 199.480469 C 204.636719 197.09375 201.996094 193.777344 197.125 194.414062 C 197.125 194.417969 197.121094 194.417969 197.121094 194.417969 C 197.121094 194.417969 197.117188 194.417969 197.117188 194.417969 C 197.117188 194.417969 197.113281 194.417969 197.113281 194.417969 C 197.113281 194.417969 197.109375 194.417969 197.109375 194.417969 C 196.363281 194.589844 194.816406 194.949219 193.765625 196.367188 C 191.253906 199.761719 194.652344 206.253906 201.203125 205.390625 C 201.203125 205.390625 201.203125 205.390625 201.207031 205.390625 C 201.207031 205.386719 201.207031 205.386719 201.207031 205.386719 C 201.207031 205.386719 201.207031 205.386719 201.210938 205.386719 C 201.214844 205.386719 201.214844 205.386719 201.214844 205.386719 C 201.21875 205.386719 201.21875 205.386719 201.21875 205.386719 C 206.242188 204.230469 205.34375 199.964844 205.226562 199.480469 " fill-opacity="1" fill-rule="nonzero"/><path fill="#0aa8a7" d="M 198.015625 176.019531 C 197.539062 173.28125 194.828125 169.171875 189.59375 169.8125 C 183.492188 171.238281 183.523438 178.703125 188.285156 181.832031 C 193.164062 185.035156 198.984375 181.558594 198.015625 176.019531 " fill-opacity="1" fill-rule="nonzero"/><path fill="#0aa8a7" d="M 183.371094 143.152344 C 177.738281 144.191406 176.550781 152.285156 181.5 155.886719 C 186.246094 159.335938 192.210938 155.449219 191.320312 149.484375 C 190.800781 146 187.835938 142.59375 183.371094 143.152344 " fill-opacity="1" fill-rule="nonzero"/><path fill="#0aa8a7" d="M 99.695312 81.960938 C 100.519531 79.988281 102.460938 75.273438 102.703125 74.101562 C 102.707031 74.074219 102.707031 74.03125 102.707031 74 C 102.6875 74 102.660156 74 102.640625 74 C 101.828125 75.003906 97.28125 85.765625 97.660156 86.429688 C 97.78125 86.261719 98.0625 85.871094 99.695312 81.960938 " fill-opacity="1" fill-rule="nonzero"/><path fill="#0aa8a7" d="M 165.503906 245.113281 C 160.136719 242.328125 158.605469 241.65625 157.8125 241.367188 C 157.8125 241.367188 157.8125 241.367188 157.808594 241.367188 C 157.804688 241.367188 157.804688 241.367188 157.804688 241.367188 C 157.726562 241.34375 157.625 241.316406 157.546875 241.304688 C 157.542969 241.320312 157.535156 241.347656 157.53125 241.363281 C 158.648438 242.417969 168.027344 246.953125 169.132812 247.121094 C 169.089844 247.03125 169.058594 246.957031 165.503906 245.113281 " fill-opacity="1" fill-rule="nonzero"/><path fill="#0aa8a7" d="M 114.441406 69.488281 C 114.835938 70.882812 117.023438 69.507812 119.53125 65.304688 C 119.675781 65.0625 123.046875 59.371094 121.589844 58.472656 C 119.085938 58.078125 113.808594 67.25 114.441406 69.488281 " fill-opacity="1" fill-rule="nonzero"/><path fill="#0aa8a7" d="M 187.699219 248.921875 C 187.703125 248.921875 187.703125 248.921875 187.703125 248.921875 C 187.789062 248.917969 187.90625 248.914062 187.992188 248.90625 C 189.191406 248.765625 188.863281 247.890625 187.160156 246.671875 C 184.746094 244.945312 181.121094 243.5625 179.078125 243.585938 C 178.714844 243.609375 178.339844 243.632812 178.101562 243.828125 C 176.800781 244.90625 183.414062 248.839844 187.699219 248.921875 " fill-opacity="1" fill-rule="nonzero"/><path fill="#0aa8a7" d="M 140.433594 60.511719 C 140.023438 60.554688 139.40625 60.621094 138.359375 61.46875 C 134.613281 64.511719 132.507812 71.738281 136.046875 71.992188 C 136.046875 71.992188 136.046875 71.992188 136.050781 71.992188 C 136.054688 71.992188 136.054688 71.992188 136.054688 71.992188 C 138.984375 71.691406 140.898438 67.351562 141.105469 66.859375 C 142.398438 63.792969 142.4375 60.511719 140.433594 60.511719 " fill-opacity="1" fill-rule="nonzero"/><path fill="#0aa8a7" d="M 116.90625 55.984375 C 115.976562 55.769531 108.96875 65.046875 109.910156 66.953125 C 109.910156 66.953125 109.914062 66.953125 109.914062 66.953125 C 110.722656 67.421875 113.554688 63.128906 113.871094 62.636719 C 114.882812 61.089844 117.414062 56.878906 116.996094 56.035156 C 116.96875 56.019531 116.9375 55.992188 116.90625 55.984375 " fill-opacity="1" fill-rule="nonzero"/><path fill="#0aa8a7" d="M 178.992188 116.875 C 172.949219 118.292969 172.832031 125.855469 176.410156 128.882812 C 180.125 132.027344 186.34375 129.1875 185.933594 123.160156 C 185.652344 119.078125 182.539062 116.257812 178.992188 116.875 " fill-opacity="1" fill-rule="nonzero"/><path fill="#0aa8a7" d="M 193.03125 128.003906 C 188.015625 129.304688 186.566406 135.746094 190.492188 139.300781 C 195.007812 143.394531 200.847656 139.320312 200.386719 133.988281 C 200.136719 131.082031 197.441406 127.386719 193.03125 128.003906 " fill-opacity="1" fill-rule="nonzero"/><path fill="#0aa8a7" d="M 206.730469 160.558594 C 206.21875 156.753906 202.347656 153.820312 198.761719 154.519531 C 193.609375 155.882812 192.378906 162.597656 196.640625 166.109375 C 201.664062 170.253906 207.472656 166.070312 206.730469 160.558594 " fill-opacity="1" fill-rule="nonzero"/><path fill="#0aa8a7" d="M 213.4375 185.605469 C 212.8125 182.308594 209.007812 179.832031 205.605469 180.507812 C 200.546875 181.828125 199.574219 187.808594 203.929688 190.824219 C 208.902344 194.273438 214.339844 190.40625 213.4375 185.605469 " fill-opacity="1" fill-rule="nonzero"/><path fill="#0aa8a7" d="M 124.6875 58.773438 C 124.933594 60.558594 127.828125 58.222656 130.023438 55.058594 C 131.597656 52.789062 133.199219 49.410156 132.113281 48.972656 C 129.804688 48.894531 124.320312 56.128906 124.6875 58.773438 " fill-opacity="1" fill-rule="nonzero"/><path fill="#0aa8a7" d="M 207.097656 229.878906 C 206.167969 227.585938 202.46875 225.742188 199.632812 226.164062 C 199.367188 226.214844 199.011719 226.289062 198.757812 226.382812 C 195.75 227.480469 196.15625 231.207031 200.507812 233.101562 C 204.960938 235.042969 208.289062 232.804688 207.097656 229.878906 " fill-opacity="1" fill-rule="nonzero"/><path fill="#0aa8a7" d="M 172.417969 247.957031 C 172.339844 247.945312 172.234375 247.933594 172.152344 247.933594 C 172.144531 247.953125 172.128906 247.980469 172.121094 248 C 173.074219 248.9375 181.347656 251.832031 183.230469 252.117188 C 183.25 252.101562 183.273438 252.082031 183.289062 252.066406 C 182.976562 251.863281 181.875 251.390625 180.019531 250.652344 C 179.4375 250.421875 174.273438 248.378906 172.417969 247.957031 " fill-opacity="1" fill-rule="nonzero"/><path fill="#0aa8a7" d="M 133.894531 59.503906 C 134.519531 61.445312 137.566406 59.421875 139.71875 55.640625 C 140.890625 53.585938 142.125 50.21875 140.453125 49.929688 C 137.722656 50.125 133.066406 56.925781 133.894531 59.503906 " fill-opacity="1" fill-rule="nonzero"/><path fill="#0aa8a7" d="M 191.859375 252.859375 C 192.320312 252.589844 190.351562 251.644531 189.738281 251.363281 C 187.371094 250.265625 183.78125 249.042969 182.109375 248.972656 C 181.839844 248.976562 181.566406 248.976562 181.480469 249.117188 C 180.890625 250.09375 190.585938 253.59375 191.859375 252.859375 " fill-opacity="1" fill-rule="nonzero"/><path fill="#0aa8a7" d="M 166.265625 81.019531 C 162.074219 81.953125 160.003906 88.382812 162.855469 91.601562 C 165.632812 94.730469 170.492188 91.828125 170.855469 86.820312 C 171.105469 83.402344 168.917969 80.640625 166.265625 81.019531 " fill-opacity="1" fill-rule="nonzero"/><path fill="#0aa8a7" d="M 158.523438 70.429688 C 154.785156 71.175781 152.265625 77.296875 154.378906 80.507812 C 156.464844 83.671875 161.007812 81.054688 161.855469 76.203125 C 162.433594 72.914062 160.84375 70.164062 158.523438 70.429688 " fill-opacity="1" fill-rule="nonzero"/><path fill="#0aa8a7" d="M 199.285156 241.585938 C 202.957031 242.351562 204.414062 240.507812 203.03125 238.460938 C 201.703125 236.5 198.183594 234.992188 195.648438 235.296875 C 195.167969 235.382812 194.714844 235.460938 194.246094 235.78125 C 192.011719 237.316406 194.933594 240.679688 199.285156 241.585938 " fill-opacity="1" fill-rule="nonzero"/><path fill="#0aa8a7" d="M 118.878906 56.886719 C 119.042969 57.863281 120.992188 56.261719 123.316406 53.246094 C 123.355469 53.195312 127.257812 48.113281 126.519531 47.296875 C 124.980469 46.875 118.554688 54.941406 118.878906 56.886719 " fill-opacity="1" fill-rule="nonzero"/><path fill="#0aa8a7" d="M 200.078125 248 C 202.148438 247.976562 202.527344 246.917969 200.980469 245.488281 C 199.753906 244.355469 196.847656 242.730469 193.867188 242.898438 C 193.507812 242.9375 192.855469 243.046875 192.519531 243.382812 C 191.039062 244.859375 196.265625 248.050781 200.078125 248 " fill-opacity="1" fill-rule="nonzero"/><path fill="#0aa8a7" d="M 153.34375 60.09375 C 150.097656 60.417969 146.960938 66.914062 148.679688 69.75 C 150.097656 72.082031 154.011719 70.113281 155.277344 65.550781 C 155.898438 63.328125 155.890625 60.039062 153.34375 60.09375 " fill-opacity="1" fill-rule="nonzero"/><path fill="#0aa8a7" d="M 176.398438 91.773438 C 172.027344 92.554688 170.25 99.230469 173.558594 102.429688 C 176.570312 105.339844 182.074219 102.78125 181.921875 97.332031 C 181.855469 94.835938 180.324219 91.296875 176.398438 91.773438 " fill-opacity="1" fill-rule="nonzero"/><path fill="#0aa8a7" d="M 212.730469 219.363281 C 212.113281 217.613281 209.609375 215.050781 205.523438 215.601562 C 205.230469 215.65625 204.792969 215.757812 204.355469 215.945312 C 200.921875 217.386719 201.589844 221.710938 205.527344 223.523438 C 209.695312 225.445312 214 222.953125 212.730469 219.363281 " fill-opacity="1" fill-rule="nonzero"/><path fill="#0aa8a7" d="M 111.65625 59.351562 C 113.3125 56.941406 115.34375 53.878906 115.617188 52.976562 C 115.605469 52.945312 115.589844 52.910156 115.578125 52.878906 C 114.609375 53.210938 108.769531 61.992188 109.003906 62.769531 C 109.113281 62.730469 109.402344 62.632812 111.65625 59.351562 " fill-opacity="1" fill-rule="nonzero"/><path fill="#0aa8a7" d="M 119.855469 50.613281 C 119.894531 50.566406 123.882812 45.761719 123.886719 44.859375 C 123.875 44.84375 123.859375 44.828125 123.847656 44.8125 C 122.71875 44.761719 115.90625 53.1875 116.484375 53.921875 C 116.984375 53.960938 118.8125 51.867188 119.855469 50.613281 " fill-opacity="1" fill-rule="nonzero"/><path fill="#0aa8a7" d="M 187.625 252.871094 C 187.363281 252.851562 187.363281 252.851562 187.292969 252.917969 C 187.910156 253.523438 196.644531 255.679688 197.449219 255.425781 C 197.34375 255.367188 197.164062 255.265625 194.695312 254.582031 C 191.140625 253.59375 188.761719 253.019531 187.625 252.871094 " fill-opacity="1" fill-rule="nonzero"/><path fill="#0aa8a7" d="M 208.335938 139.050781 C 203.546875 140.164062 202.3125 146.617188 206.269531 149.839844 C 210.519531 153.300781 216.347656 149.871094 215.574219 144.359375 C 215.203125 141.707031 212.710938 138.304688 208.335938 139.050781 " fill-opacity="1" fill-rule="nonzero"/><path fill="#0aa8a7" d="M 216.28125 212.773438 C 216.28125 212.773438 216.28125 212.773438 216.285156 212.773438 C 216.285156 212.773438 216.285156 212.773438 216.289062 212.773438 C 216.292969 212.773438 216.292969 212.773438 216.292969 212.773438 C 216.296875 212.773438 216.296875 212.773438 216.296875 212.773438 C 216.300781 212.773438 216.300781 212.773438 216.300781 212.773438 C 216.300781 212.773438 216.304688 212.769531 216.304688 212.769531 C 220.777344 211.65625 220.074219 208.054688 219.976562 207.648438 C 219.511719 205.660156 217.257812 202.945312 212.945312 203.625 C 211.246094 203.976562 210.335938 204.875 209.945312 205.378906 C 207.472656 208.5625 210.90625 213.597656 216.277344 212.777344 C 216.277344 212.777344 216.277344 212.777344 216.28125 212.773438 " fill-opacity="1" fill-rule="nonzero"/><path fill="#0aa8a7" d="M 150.882812 50 C 148.253906 50.179688 144.644531 56.054688 145.515625 58.726562 C 146.242188 60.953125 149.59375 59.371094 151.417969 55.113281 C 152.25 53.167969 152.839844 50.058594 150.882812 50 " fill-opacity="1" fill-rule="nonzero"/><path fill="#0aa8a7" d="M 129.359375 47.140625 C 129.328125 48.257812 131.507812 46.742188 134.027344 43.894531 C 135.320312 42.433594 137.792969 39.253906 137.160156 38.78125 C 135.542969 38.617188 129.417969 45.179688 129.359375 47.140625 " fill-opacity="1" fill-rule="nonzero"/><path fill="#0aa8a7" d="M 202.21875 252.542969 C 202.972656 252.316406 202.519531 251.636719 201.0625 250.8125 C 199.839844 250.117188 196.859375 248.820312 194.359375 248.878906 C 194.359375 248.878906 194.359375 248.878906 194.355469 248.878906 C 194.355469 248.878906 194.351562 248.878906 194.351562 248.878906 C 194.351562 248.878906 194.347656 248.878906 194.347656 248.878906 C 194.34375 248.878906 194.34375 248.878906 194.34375 248.878906 C 194.046875 248.910156 193.550781 248.960938 193.382812 249.214844 C 192.542969 250.476562 199.894531 253.246094 202.21875 252.542969 " fill-opacity="1" fill-rule="nonzero"/><path fill="#0aa8a7" d="M 188.601562 102.453125 C 188.597656 102.453125 188.597656 102.453125 188.597656 102.453125 C 188.59375 102.453125 188.59375 102.453125 188.59375 102.453125 C 188.589844 102.453125 188.589844 102.453125 188.589844 102.453125 C 188.589844 102.453125 188.585938 102.453125 188.585938 102.453125 C 188.585938 102.453125 188.582031 102.457031 188.582031 102.457031 C 188.582031 102.457031 188.582031 102.457031 188.578125 102.457031 C 188.578125 102.457031 188.578125 102.457031 188.574219 102.457031 C 188.574219 102.457031 188.574219 102.457031 188.570312 102.457031 C 183.21875 103.898438 183.265625 110.699219 186.515625 113.183594 C 190.207031 116.007812 195.25 112.722656 194.820312 107.777344 C 194.613281 105.394531 192.742188 101.84375 188.601562 102.453125 " fill-opacity="1" fill-rule="nonzero"/><path fill="#0aa8a7" d="M 181.742188 251.859375 L 182.082031 251.960938 C 181.832031 251.882812 181.566406 251.808594 181.320312 251.730469 L 181.742188 251.859375 " fill-opacity="1" fill-rule="nonzero"/><path fill="#0aa8a7" d="M 222.171875 170.511719 C 221.539062 167.140625 218.195312 164.914062 214.867188 165.644531 C 209.476562 167.160156 209.242188 173.59375 213.289062 176.210938 C 217.628906 179.015625 223.105469 175.503906 222.171875 170.511719 " fill-opacity="1" fill-rule="nonzero"/><path fill="#0aa8a7" d="M 136.023438 48.402344 C 136.296875 49.738281 138.867188 47.988281 141.210938 44.871094 C 142.324219 43.390625 144.261719 40.238281 143.136719 39.933594 C 141.367188 39.78125 135.554688 46.089844 136.023438 48.402344 " fill-opacity="1" fill-rule="nonzero"/><path fill="#0aa8a7" d="M 228.394531 194.574219 C 228.097656 192.027344 225.210938 189.625 221.542969 190.253906 C 217.304688 191.429688 216.097656 196.089844 219.347656 198.703125 C 223.46875 202.011719 228.882812 198.789062 228.394531 194.574219 " fill-opacity="1" fill-rule="nonzero"/><path fill="#0aa8a7" d="M 205.589844 255.636719 C 205.945312 255.441406 204.351562 254.867188 203.855469 254.695312 C 201.824219 253.992188 198.597656 253.222656 197.214844 253.238281 C 197.007812 253.25 196.671875 253.269531 196.667969 253.429688 C 196.664062 254.230469 204.585938 256.195312 205.589844 255.636719 " fill-opacity="1" fill-rule="nonzero"/><path fill="#0aa8a7" d="M 202.570312 112.957031 C 202.570312 112.957031 202.570312 112.957031 202.566406 112.957031 C 202.566406 112.957031 202.566406 112.960938 202.5625 112.960938 C 202.558594 112.960938 202.558594 112.960938 202.558594 112.960938 C 202.554688 112.960938 202.554688 112.960938 202.554688 112.960938 C 202.554688 112.960938 202.550781 112.960938 202.550781 112.960938 C 202.550781 112.960938 202.546875 112.964844 202.546875 112.964844 C 202.546875 112.964844 202.546875 112.964844 202.542969 112.964844 C 197.875 114.320312 196.902344 120.714844 200.941406 123.488281 C 205.175781 126.398438 209.804688 122.386719 209.140625 117.851562 C 208.785156 115.417969 206.300781 112.363281 202.570312 112.957031 " fill-opacity="1" fill-rule="nonzero"/><path fill="#0aa8a7" d="M 145.261719 48.433594 C 145.71875 49.980469 148.433594 48.171875 150.359375 45.042969 C 151.253906 43.589844 152.628906 40.53125 151.164062 40.351562 C 148.773438 40.644531 144.636719 46.308594 145.261719 48.433594 " fill-opacity="1" fill-rule="nonzero"/><path fill="#0aa8a7" d="M 125.828125 45.050781 C 125.828125 45.050781 125.828125 45.050781 125.828125 45.054688 C 125.828125 45.054688 125.832031 45.054688 125.832031 45.054688 C 126.40625 45.292969 129.050781 42.632812 129.847656 41.808594 C 130.011719 41.644531 133.796875 37.730469 133.613281 37.050781 C 133.59375 37.042969 133.570312 37.027344 133.550781 37.023438 C 132.769531 36.890625 125.289062 43.710938 125.828125 45.050781 " fill-opacity="1" fill-rule="nonzero"/><path fill="#0aa8a7" d="M 220.441406 235.449219 C 219.824219 234.121094 217.566406 232.449219 214.472656 232.871094 C 214.035156 232.953125 213.597656 233.101562 213.269531 233.277344 C 210.960938 234.515625 211.96875 237.304688 215.128906 238.421875 C 218.496094 239.609375 221.574219 237.886719 220.441406 235.449219 " fill-opacity="1" fill-rule="nonzero"/><path fill="#0aa8a7" d="M 172.84375 77.363281 C 175.292969 80.015625 179.46875 77.277344 179.511719 72.984375 C 179.53125 70.917969 178.316406 68.148438 175.546875 68.46875 C 172.152344 69.101562 170.433594 74.753906 172.84375 77.363281 " fill-opacity="1" fill-rule="nonzero"/><path fill="#0aa8a7" d="M 212.902344 245.832031 C 215.785156 246.355469 217.519531 245.117188 216.339844 243.378906 C 215.3125 241.863281 212.519531 240.8125 210.363281 241.128906 C 210.011719 241.195312 209.429688 241.3125 208.988281 241.660156 C 207.433594 242.898438 209.625 245.238281 212.902344 245.832031 " fill-opacity="1" fill-rule="nonzero"/><path fill="#0aa8a7" d="M 167.953125 58.75 C 164.539062 59.503906 162.921875 65.195312 164.820312 67.367188 C 166.574219 69.375 170.257812 67.371094 170.796875 63.265625 C 171.113281 60.851562 170.117188 58.441406 167.953125 58.75 " fill-opacity="1" fill-rule="nonzero"/><path fill="#0aa8a7" d="M 226.339844 225.84375 C 225.859375 224.425781 223.90625 222.515625 220.492188 223.070312 C 220.328125 223.105469 219.972656 223.199219 219.96875 223.203125 C 216.492188 224.257812 216.886719 227.785156 219.769531 229.285156 C 223.28125 231.113281 227.394531 228.957031 226.339844 225.84375 " fill-opacity="1" fill-rule="nonzero"/><path fill="#0aa8a7" d="M 162.972656 49.25 C 160.351562 49.585938 157.773438 54.929688 159.140625 57.191406 C 160.28125 59.082031 163.488281 57.449219 164.546875 53.726562 C 165.074219 51.863281 165.09375 49.136719 162.972656 49.25 " fill-opacity="1" fill-rule="nonzero"/><path fill="#0aa8a7" d="M 185.546875 78.417969 C 181.183594 79.558594 180.949219 85.34375 183.464844 87.515625 C 186.074219 89.761719 190.546875 87.511719 190.339844 83.050781 C 190.199219 80.007812 188.046875 77.929688 185.546875 78.417969 " fill-opacity="1" fill-rule="nonzero"/><path fill="#0aa8a7" d="M 213.382812 251.324219 C 215.023438 251.21875 215.347656 250.457031 214.175781 249.46875 C 212.941406 248.433594 210.453125 247.511719 208.417969 247.757812 C 208.105469 247.808594 207.585938 247.894531 207.292969 248.167969 C 206.082031 249.304688 210.351562 251.515625 213.382812 251.324219 " fill-opacity="1" fill-rule="nonzero"/><path fill="#0aa8a7" d="M 215.082031 254.953125 C 215.667969 254.777344 215.355469 254.351562 214.261719 253.84375 C 213.097656 253.304688 210.667969 252.546875 208.742188 252.671875 C 208.445312 252.699219 208.070312 252.773438 207.949219 252.953125 C 207.378906 253.828125 213.3125 255.488281 215.082031 254.953125 " fill-opacity="1" fill-rule="nonzero"/><path fill="#0aa8a7" d="M 147.734375 38.398438 C 147.945312 39.347656 150.082031 37.929688 152.132812 35.484375 C 153.746094 33.5625 154.933594 31.453125 154.125 31.386719 C 152.230469 31.554688 147.394531 36.863281 147.734375 38.398438 " fill-opacity="1" fill-rule="nonzero"/><g clip-path="url(#1491662893)"><path fill="#0aa8a7" d="M 202.605469 256.027344 C 202.378906 256.027344 202.378906 256.027344 202.328125 256.074219 C 202.90625 256.441406 210.410156 257.4375 210.960938 257.21875 C 210.765625 257.167969 210.507812 257.128906 208.511719 256.828125 C 205.359375 256.347656 203.625 256.082031 202.605469 256.027344 " fill-opacity="1" fill-rule="nonzero"/></g><path fill="#0aa8a7" d="M 161.082031 44.210938 C 162 42.171875 162.089844 39.964844 160.753906 40.066406 C 158.386719 40.5 155.433594 45.441406 156.363281 47.410156 C 157.117188 49.007812 159.71875 47.242188 161.082031 44.210938 " fill-opacity="1" fill-rule="nonzero"/><path fill="#0aa8a7" d="M 136.605469 36.300781 C 136.488281 36.953125 138.246094 35.8125 140.6875 33.65625 C 140.730469 33.621094 144.765625 30.019531 144.472656 29.542969 C 143.390625 29.34375 136.847656 34.964844 136.605469 36.300781 " fill-opacity="1" fill-rule="nonzero"/><path fill="#0aa8a7" d="M 224.421875 149.949219 C 219.332031 151.480469 219.539062 157.359375 222.542969 159.777344 C 226.050781 162.601562 231.84375 160.007812 231.09375 154.726562 C 230.609375 151.308594 227.617188 149.164062 224.421875 149.949219 " fill-opacity="1" fill-rule="nonzero"/><path fill="#0aa8a7" d="M 148.320312 30.761719 C 146.757812 30.730469 140.808594 36.386719 140.921875 37.796875 C 140.980469 38.53125 142.730469 37.605469 145.460938 34.832031 C 145.609375 34.683594 149.085938 31.140625 148.320312 30.761719 " fill-opacity="1" fill-rule="nonzero"/><path fill="#0aa8a7" d="M 230.925781 175.863281 C 226.351562 177.023438 225.8125 182.433594 229.046875 184.722656 C 232.664062 187.28125 237.894531 184.234375 237.277344 179.925781 C 236.992188 177.921875 235.011719 175.046875 230.925781 175.863281 " fill-opacity="1" fill-rule="nonzero"/><path fill="#0aa8a7" d="M 124.011719 41.890625 C 124.023438 41.867188 124.019531 41.832031 124.023438 41.808594 C 123.289062 42.136719 117.371094 49.136719 117.355469 49.695312 C 117.523438 49.589844 117.964844 49.125 119.902344 46.863281 C 123.078125 43.164062 123.757812 42.3125 124.011719 41.890625 " fill-opacity="1" fill-rule="nonzero"/><path fill="#0aa8a7" d="M 217.816406 123.53125 C 212.6875 125.09375 213.117188 131.207031 216.417969 133.402344 C 220.238281 135.941406 225 132.707031 224.257812 128.078125 C 223.742188 124.886719 220.796875 122.804688 217.816406 123.53125 " fill-opacity="1" fill-rule="nonzero"/><path fill="#0aa8a7" d="M 197.660156 88.324219 C 193.375 89.550781 193.011719 95.222656 196.136719 97.488281 C 199.40625 99.859375 203.683594 96.835938 203.070312 92.585938 C 202.789062 90.640625 201.070312 87.757812 197.660156 88.324219 " fill-opacity="1" fill-rule="nonzero"/><path fill="#0aa8a7" d="M 233.792969 214.839844 C 233.398438 212.902344 231.25 211.160156 228.042969 211.746094 C 224.09375 212.664062 223.675781 216.582031 226.382812 218.449219 C 229.65625 220.707031 234.503906 218.34375 233.792969 214.839844 " fill-opacity="1" fill-rule="nonzero"/><path fill="#0aa8a7" d="M 128.316406 39.175781 C 128.355469 39.140625 132.261719 35.378906 132.519531 34.71875 C 132.519531 34.71875 132.519531 34.71875 132.507812 34.679688 C 131.667969 34.648438 125.011719 41.136719 125.164062 41.839844 C 125.464844 41.863281 127.269531 40.183594 128.316406 39.175781 " fill-opacity="1" fill-rule="nonzero"/><path fill="#0aa8a7" d="M 210.421875 107.167969 C 214.101562 109.574219 217.925781 106.113281 217.234375 102.273438 C 216.875 100.277344 214.8125 97.609375 211.527344 98.230469 C 207.960938 99.136719 206.6875 104.71875 210.421875 107.167969 " fill-opacity="1" fill-rule="nonzero"/><path fill="#0aa8a7" d="M 242.324219 202.25 C 242.058594 200.234375 239.871094 198.441406 236.808594 199.050781 C 233.5 199.886719 231.804688 203.890625 234.777344 206.113281 C 238.195312 208.667969 242.777344 205.699219 242.324219 202.25 " fill-opacity="1" fill-rule="nonzero"/><g clip-path="url(#557bf29eaa)"><path fill="#0aa8a7" d="M 211.519531 255.917969 C 211.191406 255.945312 211.101562 255.976562 211.074219 256.058594 C 211.378906 256.660156 217.429688 257.320312 218.207031 257.027344 C 218.207031 257.007812 218.210938 256.988281 218.214844 256.972656 C 218.152344 256.925781 217.984375 256.804688 216.507812 256.511719 C 215.953125 256.402344 213.125 255.859375 211.519531 255.917969 " fill-opacity="1" fill-rule="nonzero"/></g><path fill="#0aa8a7" d="M 156.335938 37.804688 C 156.542969 39.03125 158.609375 37.933594 160.433594 35.132812 C 161.59375 33.347656 162.246094 31.445312 161.277344 31.476562 C 159.523438 31.742188 156.058594 36.179688 156.335938 37.804688 " fill-opacity="1" fill-rule="nonzero"/><path fill="#0aa8a7" d="M 138.285156 31.75 C 139.792969 30.535156 142.332031 28.421875 142.449219 27.953125 C 141.984375 27.539062 135.066406 33.121094 134.972656 33.988281 C 135.03125 34.050781 135.210938 34.230469 138.285156 31.75 " fill-opacity="1" fill-rule="nonzero"/><path fill="#0aa8a7" d="M 182.042969 63.683594 C 183.914062 65.480469 187.199219 63.695312 187.101562 60.144531 C 187.0625 58.757812 186.328125 56.230469 183.824219 56.585938 C 180.949219 57.195312 180.167969 61.882812 182.042969 63.683594 " fill-opacity="1" fill-rule="nonzero"/><path fill="#0aa8a7" d="M 228.011719 238.433594 C 227.828125 238.476562 227.578125 238.535156 227.398438 238.601562 C 225.152344 239.40625 225.652344 241.480469 227.652344 242.382812 C 229.941406 243.414062 233.191406 242.332031 232.449219 240.28125 C 232.089844 239.304688 230.617188 238.007812 228.011719 238.433594 " fill-opacity="1" fill-rule="nonzero"/><path fill="#0aa8a7" d="M 178.710938 51.273438 C 178.917969 49.304688 178.105469 47.445312 176.394531 47.726562 C 173.75 48.371094 172.628906 52.765625 174.128906 54.480469 C 175.539062 56.09375 178.375 54.53125 178.710938 51.273438 " fill-opacity="1" fill-rule="nonzero"/><path fill="#0aa8a7" d="M 225.039062 248.976562 C 227.175781 249.371094 229.066406 248.574219 228.152344 247.183594 C 227.40625 246.058594 225.464844 245.410156 223.726562 245.710938 C 223.445312 245.773438 222.976562 245.875 222.617188 246.128906 C 221.414062 246.984375 222.75 248.554688 225.039062 248.976562 " fill-opacity="1" fill-rule="nonzero"/><path fill="#0aa8a7" d="M 238.558594 231.503906 C 238.292969 230.40625 236.894531 228.960938 234.148438 229.476562 C 230.898438 230.339844 231.0625 233.023438 233.007812 234.152344 C 235.570312 235.640625 239.152344 233.933594 238.558594 231.503906 " fill-opacity="1" fill-rule="nonzero"/><path fill="#0aa8a7" d="M 233.878906 133.976562 C 229.425781 135.21875 229.636719 140.714844 232.421875 142.789062 C 235.582031 145.136719 240.644531 142.492188 239.753906 137.867188 C 239.421875 136.144531 237.769531 133.109375 233.878906 133.976562 " fill-opacity="1" fill-rule="nonzero"/><path fill="#0aa8a7" d="M 159.589844 23.28125 C 158.246094 23.355469 153.019531 27.789062 153.011719 28.863281 C 153.007812 29.40625 154.425781 28.695312 156.796875 26.570312 C 156.832031 26.539062 160.210938 23.503906 159.589844 23.28125 " fill-opacity="1" fill-rule="nonzero"/><path fill="#0aa8a7" d="M 148.535156 28.046875 C 148.492188 28.496094 150 27.617188 152.292969 25.855469 C 152.660156 25.574219 155.871094 23.089844 155.914062 22.59375 C 155.90625 22.585938 155.890625 22.570312 155.882812 22.5625 C 154.867188 22.496094 148.617188 27.164062 148.535156 28.046875 " fill-opacity="1" fill-rule="nonzero"/><path fill="#0aa8a7" d="M 238.921875 168.980469 C 241.960938 171.207031 247.003906 168.75 246.375 164.320312 C 246.128906 162.601562 244.617188 159.59375 240.628906 160.488281 C 235.777344 162.070312 236.515625 167.21875 238.921875 168.980469 " fill-opacity="1" fill-rule="nonzero"/><path fill="#0aa8a7" d="M 192.386719 72.917969 C 194.839844 74.9375 198.1875 72.527344 197.734375 69.070312 C 197.53125 67.507812 196.253906 65.1875 193.695312 65.613281 C 190.800781 66.285156 189.964844 70.929688 192.386719 72.917969 " fill-opacity="1" fill-rule="nonzero"/><path fill="#0aa8a7" d="M 251.484375 188.179688 C 251.175781 185.960938 248.738281 184.515625 246.367188 185.148438 C 242.847656 186.289062 241.714844 190.3125 244.34375 192.320312 C 247.558594 194.773438 251.960938 191.597656 251.484375 188.179688 " fill-opacity="1" fill-rule="nonzero"/><path fill="#0aa8a7" d="M 225.46875 253.496094 C 226.488281 253.320312 226.628906 252.789062 225.804688 252.203125 C 225.128906 251.722656 223.386719 251.039062 221.582031 251.257812 C 220.992188 251.351562 220.742188 251.53125 220.636719 251.667969 C 219.933594 252.578125 223.316406 253.859375 225.46875 253.496094 " fill-opacity="1" fill-rule="nonzero"/><path fill="#0aa8a7" d="M 168.777344 45.300781 C 169.707031 46.894531 172.109375 45.320312 172.859375 42.621094 C 173.359375 40.828125 172.96875 38.953125 171.613281 39.136719 C 169.550781 39.613281 167.75 43.53125 168.777344 45.300781 " fill-opacity="1" fill-rule="nonzero"/><path fill="#0aa8a7" d="M 241.882812 218.910156 C 239.167969 219.714844 238.109375 222.390625 239.890625 223.925781 C 242.398438 226.089844 246.410156 223.964844 246.226562 221.300781 C 246.109375 219.589844 243.957031 218.40625 241.882812 218.910156 " fill-opacity="1" fill-rule="nonzero"/><path fill="#0aa8a7" d="M 207.679688 82.675781 C 207.679688 82.675781 207.683594 82.675781 207.683594 82.675781 C 207.6875 82.675781 207.6875 82.675781 207.6875 82.675781 C 207.6875 82.675781 207.6875 82.675781 207.691406 82.675781 C 207.691406 82.675781 207.691406 82.671875 207.691406 82.671875 C 210 81.925781 210.519531 79.597656 210.304688 78.214844 C 209.953125 75.9375 207.71875 74.242188 205.710938 74.722656 C 205.304688 74.851562 204.457031 75.125 203.753906 76.21875 C 201.800781 79.269531 204.257812 83.3125 207.679688 82.675781 " fill-opacity="1" fill-rule="nonzero"/><path fill="#0aa8a7" d="M 225.527344 116.261719 C 229.078125 118.9375 233.019531 115.6875 232.316406 111.894531 C 231.898438 109.628906 229.65625 107.554688 226.757812 108.148438 C 223.25 109.308594 222.539062 114.011719 225.527344 116.261719 " fill-opacity="1" fill-rule="nonzero"/><path fill="#0aa8a7" d="M 146.15625 26.585938 C 146.476562 26.683594 148.695312 25.203125 149.636719 24.558594 C 149.675781 24.53125 153.5625 21.867188 153.667969 21.453125 C 152.917969 21.269531 146.109375 25.917969 146.15625 26.585938 " fill-opacity="1" fill-rule="nonzero"/><path fill="#0aa8a7" d="M 169.617188 30.972656 C 168.066406 31.316406 165.6875 34.914062 166.300781 36.519531 C 166.839844 37.945312 168.96875 36.105469 169.898438 33.871094 C 170.496094 32.429688 170.507812 30.882812 169.617188 30.972656 " fill-opacity="1" fill-rule="nonzero"/><path fill="#0aa8a7" d="M 164.578125 23.519531 C 163.5 23.546875 159.1875 27.609375 159.210938 28.925781 C 159.226562 29.765625 161.15625 28.347656 162.746094 26.609375 C 163.683594 25.582031 165.1875 23.621094 164.578125 23.519531 " fill-opacity="1" fill-rule="nonzero"/><path fill="#0aa8a7" d="M 225.8125 255.546875 C 224.753906 255.203125 222.789062 254.910156 221.742188 255.039062 C 221.546875 255.070312 221.226562 255.121094 221.175781 255.277344 C 220.953125 255.984375 225.644531 256.53125 226.503906 256.136719 C 226.851562 255.980469 226.371094 255.730469 225.8125 255.546875 " fill-opacity="1" fill-rule="nonzero"/><path fill="#0aa8a7" d="M 133.726562 31.960938 C 133.738281 31.945312 133.75 31.921875 133.757812 31.90625 C 133.308594 32.101562 127.765625 37.179688 127.480469 37.804688 C 127.582031 37.726562 127.582031 37.726562 129.871094 35.601562 C 132.796875 32.875 133.492188 32.226562 133.726562 31.960938 " fill-opacity="1" fill-rule="nonzero"/><path fill="#0aa8a7" d="M 138.320312 29.183594 C 141.925781 26.433594 142.195312 26.117188 142.394531 25.886719 C 142.007812 25.679688 135.816406 30.417969 135.765625 30.957031 C 135.828125 30.960938 135.96875 30.972656 138.320312 29.183594 " fill-opacity="1" fill-rule="nonzero"/><path fill="#0aa8a7" d="M 161.042969 20.328125 C 161.195312 20.515625 162.144531 19.992188 164.4375 18.460938 C 164.921875 18.136719 167.34375 16.503906 167.457031 16.199219 C 167.449219 16.191406 167.441406 16.183594 167.433594 16.179688 C 166.980469 16.117188 161.132812 19.546875 161.042969 20.328125 " fill-opacity="1" fill-rule="nonzero"/><path fill="#0aa8a7" d="M 254.847656 209.542969 C 254.851562 209.503906 254.667969 206.027344 250.820312 207.0625 C 246.390625 208.417969 248.308594 211.960938 248.726562 212.386719 C 250.160156 213.855469 254.648438 213.074219 254.847656 209.542969 " fill-opacity="1" fill-rule="nonzero"/><path fill="#0aa8a7" d="M 170.359375 23.472656 C 169.179688 23.707031 166.519531 27.023438 166.660156 28.078125 C 166.769531 28.878906 168.289062 28.011719 169.5625 26.136719 C 169.871094 25.683594 171.355469 23.421875 170.359375 23.472656 " fill-opacity="1" fill-rule="nonzero"/><g clip-path="url(#d15e53f669)"><path fill="#0aa8a7" d="M 227.976562 257.082031 C 226.003906 257 225.117188 256.988281 224.46875 257.042969 C 224.136719 257.074219 224.121094 257.097656 224.101562 257.132812 C 224.542969 257.386719 228.675781 257.324219 229.277344 257.175781 C 229.238281 257.148438 229.222656 257.136719 227.976562 257.082031 " fill-opacity="1" fill-rule="nonzero"/></g><path fill="#0aa8a7" d="M 254.554688 177.113281 C 255.144531 177.558594 256.769531 178.425781 259.085938 176.902344 C 259.84375 176.402344 261.070312 175.234375 260.757812 173.027344 C 260.34375 170.140625 258.019531 169.746094 256.152344 170.289062 C 252.390625 171.609375 252.777344 175.78125 254.554688 177.113281 " fill-opacity="1" fill-rule="nonzero"/><path fill="#0aa8a7" d="M 248.726562 152 C 250.570312 153.527344 255.714844 152.65625 255.199219 147.707031 C 255.195312 147.664062 254.535156 143.222656 250.214844 144.324219 C 245.597656 145.710938 247.179688 150.71875 248.726562 152 " fill-opacity="1" fill-rule="nonzero"/><path fill="#0aa8a7" d="M 241.910156 125.464844 C 242.265625 125.707031 244.144531 126.84375 246.289062 125.355469 C 247.226562 124.707031 248.25 123.492188 247.796875 121.390625 C 247.207031 118.660156 245.25 117.417969 242.695312 118.15625 C 238.941406 119.5 239.789062 124.019531 241.910156 125.464844 " fill-opacity="1" fill-rule="nonzero"/><path fill="#0aa8a7" d="M 219.050781 90.996094 C 221.1875 92.242188 225.015625 91.089844 224.191406 87.25 C 223.761719 85.257812 222.074219 83.515625 219.675781 84.035156 C 215.90625 85.089844 216.890625 89.738281 219.050781 90.996094 " fill-opacity="1" fill-rule="nonzero"/><path fill="#0aa8a7" d="M 152.652344 20.148438 C 152.652344 20.136719 152.640625 20.128906 152.632812 20.117188 C 152.015625 20.136719 146.691406 23.382812 145.953125 24.351562 C 146.273438 24.304688 147.039062 23.878906 148.976562 22.648438 C 151.730469 20.910156 152.554688 20.347656 152.652344 20.148438 " fill-opacity="1" fill-rule="nonzero"/><path fill="#0aa8a7" d="M 235.179688 249.132812 C 234.972656 249.183594 234.625 249.261719 234.375 249.4375 C 233.75 249.875 233.964844 250.785156 235.539062 251.144531 C 236.882812 251.453125 238.722656 250.957031 238.101562 249.949219 C 237.71875 249.328125 236.667969 248.835938 235.179688 249.132812 " fill-opacity="1" fill-rule="nonzero"/><path fill="#0aa8a7" d="M 165.03125 20.773438 C 165.53125 20.589844 166.222656 20.242188 167.84375 18.941406 C 169.167969 17.882812 170.6875 16.601562 170.378906 16.527344 C 170.378906 16.527344 170.375 16.527344 170.375 16.527344 C 169.710938 16.5625 164.464844 20.226562 165.03125 20.773438 " fill-opacity="1" fill-rule="nonzero"/><path fill="#0aa8a7" d="M 158.539062 19.519531 C 159.097656 19.367188 159.996094 18.902344 161.972656 17.746094 C 165.304688 15.792969 165.34375 15.679688 165.382812 15.574219 L 165.382812 15.570312 C 165.378906 15.570312 165.378906 15.570312 165.378906 15.570312 C 164.890625 15.503906 158.929688 18.746094 158.539062 19.519531 " fill-opacity="1" fill-rule="nonzero"/><path fill="#0aa8a7" d="M 239.679688 242.90625 C 239.574219 242.925781 239.472656 242.957031 239.371094 242.988281 C 238.039062 243.398438 237.347656 244.757812 239.035156 245.585938 C 240.527344 246.316406 243.042969 245.4375 242.585938 244.011719 C 242.5 243.75 241.964844 242.457031 239.679688 242.90625 " fill-opacity="1" fill-rule="nonzero"/><path fill="#0aa8a7" d="M 182.082031 42.402344 C 182.820312 43.355469 185.035156 43.054688 185.289062 40.054688 C 185.292969 40.027344 185.277344 37.375 183.519531 37.625 C 181.511719 38.054688 181.242188 41.320312 182.082031 42.402344 " fill-opacity="1" fill-rule="nonzero"/><path fill="#0aa8a7" d="M 189.863281 50.691406 C 189.875 50.699219 191.003906 51.636719 192.0625 50.890625 C 192.445312 50.621094 193.457031 49.910156 193.34375 48.242188 C 193.335938 48.113281 193.113281 45.148438 190.808594 45.539062 C 188.558594 46.066406 188.503906 49.542969 189.863281 50.691406 " fill-opacity="1" fill-rule="nonzero"/><path fill="#0aa8a7" d="M 245.976562 234.980469 C 243.738281 235.609375 243.640625 237.367188 244.761719 238.179688 C 246.023438 239.089844 249.121094 238.261719 248.863281 236.285156 C 248.703125 235.082031 247.597656 234.582031 245.976562 234.980469 " fill-opacity="1" fill-rule="nonzero"/><path fill="#0aa8a7" d="M 234.304688 99.703125 C 236.03125 100.800781 239.859375 100.070312 239.199219 96.152344 C 239.089844 95.507812 237.875 92.433594 234.71875 93.34375 C 231.078125 94.59375 232.796875 98.742188 234.304688 99.703125 " fill-opacity="1" fill-rule="nonzero"/><path fill="#0aa8a7" d="M 260.582031 193.769531 C 256.898438 195.007812 257.839844 198.1875 258.425781 198.929688 C 259.796875 200.675781 264.027344 199.601562 264.25 196.109375 C 264.28125 195.570312 263.75 192.847656 260.582031 193.769531 " fill-opacity="1" fill-rule="nonzero"/><path fill="#0aa8a7" d="M 140.945312 25.894531 C 143.871094 23.742188 143.871094 23.742188 144.050781 23.585938 C 144.070312 23.570312 144.09375 23.546875 144.101562 23.523438 C 143.636719 23.722656 139.421875 26.859375 139.097656 27.253906 C 139.75 26.851562 140.328125 26.347656 140.945312 25.894531 " fill-opacity="1" fill-rule="nonzero"/><g clip-path="url(#c7deb49404)"><path fill="#0aa8a7" d="M 164.066406 14.824219 C 163.84375 14.699219 158.488281 17.316406 157.855469 18.015625 C 158.027344 18.066406 158.847656 17.660156 160.746094 16.675781 C 163.398438 15.292969 163.988281 14.964844 164.066406 14.824219 " fill-opacity="1" fill-rule="nonzero"/></g><path fill="#0aa8a7" d="M 235.078125 254.683594 C 235.964844 254.558594 236.140625 254.328125 235.628906 253.960938 C 235.621094 253.949219 234.507812 253.261719 232.917969 253.542969 C 232.726562 253.578125 232.328125 253.660156 232.203125 253.828125 C 231.902344 254.234375 233.519531 254.902344 235.078125 254.683594 " fill-opacity="1" fill-rule="nonzero"/><path fill="#0aa8a7" d="M 179.792969 32.3125 C 179.984375 31.246094 179.984375 30 178.894531 30.128906 C 177.230469 30.445312 176.570312 33.617188 177.175781 34.398438 C 177.742188 35.132812 179.378906 34.605469 179.792969 32.3125 " fill-opacity="1" fill-rule="nonzero"/><path fill="#0aa8a7" d="M 256.667969 226.855469 C 256.640625 226.058594 256.257812 224.808594 253.984375 225.355469 C 250.671875 226.375 252.03125 228.675781 252.335938 228.953125 C 253.4375 229.949219 256.742188 229.03125 256.667969 226.855469 " fill-opacity="1" fill-rule="nonzero"/><path fill="#0aa8a7" d="M 172.46875 18.648438 C 172.53125 18.582031 172.617188 18.496094 172.683594 18.429688 C 174.210938 16.847656 174.117188 16.667969 173.914062 16.675781 C 173.128906 16.796875 170.089844 19.609375 170.046875 20.253906 C 170.027344 20.542969 170.605469 20.546875 172.46875 18.648438 " fill-opacity="1" fill-rule="nonzero"/><path fill="#0aa8a7" d="M 200.078125 59.039062 C 201.511719 59.984375 204.230469 59.085938 203.640625 56.234375 C 203.332031 54.746094 202.363281 53.316406 200.566406 53.753906 C 197.832031 54.570312 198.777344 58.179688 200.078125 59.039062 " fill-opacity="1" fill-rule="nonzero"/><path fill="#0aa8a7" d="M 212.359375 67.261719 C 214.070312 68.265625 216.675781 67.023438 215.894531 64.386719 C 215.574219 63.320312 214.71875 61.597656 212.558594 62.089844 C 209.765625 62.867188 210.957031 66.4375 212.359375 67.261719 " fill-opacity="1" fill-rule="nonzero"/><path fill="#0aa8a7" d="M 258.132812 133.996094 C 259.667969 135.402344 263.601562 134.9375 263.261719 130.515625 C 263.164062 129.269531 261.652344 128.253906 261.636719 128.246094 C 260.667969 127.640625 259.753906 127.890625 259.261719 128.023438 C 255.875 129.140625 256.832031 132.808594 258.132812 133.996094 " fill-opacity="1" fill-rule="nonzero"/><path fill="#0aa8a7" d="M 232.960938 256.054688 C 232.828125 256.078125 232.546875 256.128906 232.554688 256.199219 C 232.5625 256.300781 233.207031 256.414062 234.234375 256.421875 C 234.738281 256.425781 235.917969 256.355469 235.972656 256.222656 C 235.941406 256.195312 235.886719 256.164062 235.492188 256.101562 C 235.476562 256.097656 234.054688 255.890625 232.960938 256.054688 " fill-opacity="1" fill-rule="nonzero"/><path fill="#0aa8a7" d="M 174.988281 26.574219 C 175.058594 26.769531 175.285156 27.171875 175.902344 26.710938 C 176.246094 26.460938 176.753906 26 177.175781 24.957031 C 177.476562 24.207031 177.867188 22.960938 177.089844 23.019531 C 176.054688 23.1875 174.695312 25.746094 174.988281 26.574219 " fill-opacity="1" fill-rule="nonzero"/><path fill="#0aa8a7" d="M 264.820312 160.421875 C 265.671875 161.011719 267.355469 161.042969 267.949219 160.628906 C 268.5 160.242188 270.183594 159.070312 269.839844 156.921875 C 269.5625 155.195312 268.289062 153.769531 266.0625 154.480469 C 262.550781 155.773438 263.5625 159.542969 264.820312 160.421875 " fill-opacity="1" fill-rule="nonzero"/><path fill="#0aa8a7" d="M 149.964844 20.433594 C 149.992188 20.417969 152.761719 18.800781 153.070312 18.507812 C 153.070312 18.5 153.070312 18.488281 153.070312 18.480469 C 152.617188 18.558594 148.425781 20.984375 147.871094 21.566406 C 147.875 21.574219 147.875 21.585938 147.878906 21.589844 C 148.050781 21.542969 148.558594 21.25 149.964844 20.433594 " fill-opacity="1" fill-rule="nonzero"/><path fill="#0aa8a7" d="M 270.804688 179.410156 C 268.191406 180.269531 267.949219 182.96875 269.183594 184.207031 C 270.554688 185.585938 273.824219 184.113281 273.78125 181.578125 C 273.769531 181.078125 273.585938 178.617188 270.804688 179.410156 " fill-opacity="1" fill-rule="nonzero"/><path fill="#0aa8a7" d="M 265.566406 215.738281 C 265.574219 215.089844 265.351562 213.640625 263.179688 214.210938 C 260.644531 214.976562 260.707031 217.132812 261.414062 217.875 C 262.492188 219.011719 265.550781 217.765625 265.566406 215.738281 " fill-opacity="1" fill-rule="nonzero"/><path fill="#0aa8a7" d="M 250.550781 108.019531 C 252.332031 109.152344 255.414062 107.761719 254.636719 104.964844 C 254.4375 104.242188 253.578125 101.9375 250.941406 102.671875 C 247.96875 103.660156 249.082031 107.085938 250.550781 108.019531 " fill-opacity="1" fill-rule="nonzero"/><path fill="#0aa8a7" d="M 226.273438 75.265625 C 227.558594 76.078125 230.351562 75.566406 229.675781 72.726562 C 229.667969 72.695312 228.875 69.871094 226.355469 70.605469 C 223.585938 71.554688 225.285156 74.636719 226.273438 75.265625 " fill-opacity="1" fill-rule="nonzero"/><path fill="#0aa8a7" d="M 177.453125 18.171875 C 177.574219 18.007812 178.605469 16.585938 178.101562 16.585938 C 177.359375 16.742188 175.796875 18.875 175.824219 19.347656 C 175.824219 19.359375 176.042969 20.089844 177.453125 18.171875 " fill-opacity="1" fill-rule="nonzero"/><path fill="#0aa8a7" d="M 244.441406 251.503906 C 244.363281 251.519531 244.285156 251.539062 244.207031 251.566406 C 243.5 251.804688 243.675781 252.171875 244.019531 252.347656 C 244.582031 252.625 245.960938 252.398438 245.765625 251.796875 C 245.761719 251.792969 245.46875 251.292969 244.441406 251.503906 " fill-opacity="1" fill-rule="nonzero"/><path fill="#0aa8a7" d="M 273.054688 201.777344 C 271.703125 202.273438 270.753906 203.945312 271.628906 204.984375 C 272.519531 206.035156 274.925781 205.054688 275.101562 203.160156 C 275.234375 201.714844 274.167969 201.425781 273.054688 201.777344 " fill-opacity="1" fill-rule="nonzero"/><path fill="#0aa8a7" d="M 241.746094 83.140625 C 243.375 83.953125 245.203125 82.667969 244.441406 80.6875 C 243.945312 79.402344 242.800781 78.792969 241.597656 79.179688 C 239.40625 80 240.558594 82.554688 241.746094 83.140625 " fill-opacity="1" fill-rule="nonzero"/><path fill="#0aa8a7" d="M 249.101562 246.476562 C 248.054688 246.738281 247.890625 247.394531 248.234375 247.730469 C 248.832031 248.316406 250.488281 247.800781 250.445312 247.042969 C 250.429688 246.726562 250.128906 246.25 249.101562 246.476562 " fill-opacity="1" fill-rule="nonzero"/><path fill="#0aa8a7" d="M 274.785156 142.398438 C 275.804688 143.160156 278.214844 142.289062 277.863281 140.082031 C 277.683594 138.976562 277.113281 137.773438 275.386719 138.308594 C 273.140625 139.109375 273.824219 141.679688 274.785156 142.398438 " fill-opacity="1" fill-rule="nonzero"/><path fill="#0aa8a7" d="M 280.890625 164.234375 C 278.730469 165.003906 279.230469 167.359375 279.964844 167.890625 C 279.972656 167.898438 280.90625 168.527344 282.058594 167.675781 C 282.316406 167.484375 283.101562 166.90625 282.980469 165.660156 C 282.90625 164.90625 282.535156 163.71875 280.890625 164.234375 " fill-opacity="1" fill-rule="nonzero"/><path fill="#0aa8a7" d="M 255.574219 239.6875 C 253.96875 240.167969 254.59375 241.25 254.601562 241.261719 C 255.015625 241.78125 256.789062 241.382812 256.886719 240.332031 C 256.914062 240.023438 256.84375 239.347656 255.574219 239.6875 " fill-opacity="1" fill-rule="nonzero"/><path fill="#0aa8a7" d="M 206.003906 45.871094 C 206.71875 46.277344 208.207031 45.867188 207.707031 44.316406 C 207.550781 43.824219 207.058594 42.703125 205.917969 43.011719 C 204.367188 43.511719 205.320312 45.480469 206.003906 45.871094 " fill-opacity="1" fill-rule="nonzero"/><path fill="#0aa8a7" d="M 243.15625 254.671875 C 243.019531 254.605469 242.632812 254.472656 241.957031 254.609375 C 241.847656 254.632812 241.621094 254.683594 241.582031 254.757812 C 241.476562 254.953125 242.515625 255.066406 243.101562 254.867188 C 243.285156 254.804688 243.300781 254.742188 243.15625 254.671875 " fill-opacity="1" fill-rule="nonzero"/><path fill="#0aa8a7" d="M 195.964844 38.511719 C 196.476562 38.945312 197.886719 38.894531 197.6875 37.199219 C 197.683594 37.183594 197.40625 35.523438 196.164062 35.820312 C 194.945312 36.1875 195.378906 38.011719 195.964844 38.511719 " fill-opacity="1" fill-rule="nonzero"/><path fill="#0aa8a7" d="M 184.984375 23.570312 C 185.046875 23.175781 185.125 22.273438 184.519531 22.355469 C 183.742188 22.523438 183.558594 24.121094 183.859375 24.472656 C 184.140625 24.800781 184.820312 24.59375 184.984375 23.570312 " fill-opacity="1" fill-rule="nonzero"/><path fill="#0aa8a7" d="M 188.585938 31.398438 C 188.742188 31.527344 189.152344 31.785156 189.632812 31.351562 C 189.835938 31.167969 190.066406 30.800781 190.011719 30.109375 C 189.984375 29.773438 189.832031 28.699219 188.988281 28.878906 C 187.890625 29.191406 188.105469 30.992188 188.585938 31.398438 " fill-opacity="1" fill-rule="nonzero"/><path fill="#0aa8a7" d="M 267.238281 116.046875 C 268.117188 116.570312 270.488281 116.164062 269.960938 113.734375 C 269.957031 113.714844 269.417969 111.648438 267.484375 112.238281 C 265.292969 113.023438 266.335938 115.511719 267.238281 116.046875 " fill-opacity="1" fill-rule="nonzero"/><path fill="#0aa8a7" d="M 218.238281 53.128906 C 219.082031 53.445312 219.304688 53.199219 219.589844 52.882812 C 219.730469 52.726562 220.023438 52.28125 219.699219 51.507812 C 219.347656 50.660156 218.574219 50.21875 217.820312 50.4375 C 217.785156 50.449219 217.738281 50.464844 217.703125 50.476562 C 216.703125 50.902344 217.0625 52.6875 218.238281 53.128906 " fill-opacity="1" fill-rule="nonzero"/><path fill="#0aa8a7" d="M 263.796875 231.042969 C 262.675781 231.382812 262.328125 232.308594 262.640625 232.769531 C 262.941406 233.207031 263.828125 232.984375 263.839844 232.980469 C 263.847656 232.976562 264.785156 232.480469 264.917969 231.847656 C 264.980469 231.546875 264.910156 230.75 263.796875 231.042969 " fill-opacity="1" fill-rule="nonzero"/><path fill="#0aa8a7" d="M 273.121094 220.871094 C 271.980469 221.277344 272.058594 222.25 272.210938 222.457031 C 272.53125 222.882812 273.820312 222.484375 274.015625 221.574219 C 274.054688 221.394531 274.1875 220.53125 273.121094 220.871094 " fill-opacity="1" fill-rule="nonzero"/><path fill="#0aa8a7" d="M 283.472656 188.15625 C 282.308594 188.570312 282.070312 189.957031 282.589844 190.53125 C 283.160156 191.164062 284.804688 190.351562 284.859375 189.140625 C 284.882812 188.597656 284.730469 187.75 283.472656 188.15625 " fill-opacity="1" fill-rule="nonzero"/><path fill="#0aa8a7" d="M 257.984375 90.679688 C 258.8125 91.09375 260.320312 90.4375 259.773438 89.03125 C 259.5625 88.488281 259.042969 87.625 257.941406 87.964844 C 256.324219 88.542969 257.269531 90.320312 257.984375 90.679688 " fill-opacity="1" fill-rule="nonzero"/><path fill="#0aa8a7" d="M 232.078125 60.160156 C 232.136719 60.179688 232.667969 60.375 233.027344 60.035156 C 233.316406 59.753906 233.386719 59.421875 233.234375 59.050781 C 233.230469 59.035156 232.757812 57.917969 231.792969 58.175781 C 231.742188 58.191406 231.699219 58.210938 231.652344 58.230469 C 230.746094 58.65625 231.402344 59.890625 232.078125 60.160156 " fill-opacity="1" fill-rule="nonzero"/><g transform="matrix(1, 0, 0, 1, 99, 255)"><g clip-path="url(#4cfe0e7139)"><g fill="#005757" fill-opacity="1"><g transform="translate(16.773283, 65.556815)"><g><path d="M 48.046875 -46.96875 L 48.046875 0 L 39.3125 0 L 39.3125 -20.125 L 15.03125 -20.125 L 15.03125 0 L 6.3125 0 L 6.3125 -46.96875 L 15.03125 -46.96875 L 15.03125 -27.578125 L 39.3125 -27.578125 L 39.3125 -46.96875 Z M 48.046875 -46.96875 "/></g></g></g><g fill="#005757" fill-opacity="1"><g transform="translate(71.102387, 65.556815)"><g><path d="M 25.625 -46.96875 C 29.695312 -46.96875 33.242188 -46.296875 36.265625 -44.953125 C 39.285156 -43.609375 41.597656 -41.679688 43.203125 -39.171875 C 44.816406 -36.671875 45.625 -33.703125 45.625 -30.265625 C 45.625 -26.859375 44.816406 -23.890625 43.203125 -21.359375 C 41.597656 -18.835938 39.285156 -16.90625 36.265625 -15.5625 C 33.242188 -14.21875 29.695312 -13.546875 25.625 -13.546875 L 15.03125 -13.546875 L 15.03125 0 L 6.3125 0 L 6.3125 -46.96875 Z M 25.234375 -20.9375 C 29.035156 -20.9375 31.914062 -21.738281 33.875 -23.34375 C 35.84375 -24.957031 36.828125 -27.265625 36.828125 -30.265625 C 36.828125 -33.253906 35.84375 -35.550781 33.875 -37.15625 C 31.914062 -38.769531 29.035156 -39.578125 25.234375 -39.578125 L 15.03125 -39.578125 L 15.03125 -20.9375 Z M 25.234375 -20.9375 "/></g></g></g><g fill="#005757" fill-opacity="1"><g transform="translate(119.79737, 65.556815)"><g><path d="M 15.828125 -39.578125 L 0.265625 -39.578125 L 0.265625 -46.96875 L 40.125 -46.96875 L 40.125 -39.578125 L 24.5625 -39.578125 L 24.5625 0 L 15.828125 0 Z M 15.828125 -39.578125 "/></g></g></g><g clip-path="url(#08d21229a4)"><g transform="matrix(1, 0, 0, 1, -0.000000000000014211, 79)"><g clip-path="url(#829ad61a6a)"><g fill="#005757" fill-opacity="1"><g transform="translate(1.491276, 21.830803)"><g><path d="M 7.140625 0.234375 C 5.898438 0.234375 4.703125 0.0546875 3.546875 -0.296875 C 2.390625 -0.648438 1.472656 -1.117188 0.796875 -1.703125 L 1.84375 -4.015625 C 2.5 -3.492188 3.304688 -3.066406 4.265625 -2.734375 C 5.222656 -2.410156 6.179688 -2.25 7.140625 -2.25 C 8.335938 -2.25 9.226562 -2.441406 9.8125 -2.828125 C 10.40625 -3.210938 10.703125 -3.71875 10.703125 -4.34375 C 10.703125 -4.800781 10.535156 -5.179688 10.203125 -5.484375 C 9.878906 -5.785156 9.460938 -6.019531 8.953125 -6.1875 C 8.453125 -6.351562 7.765625 -6.539062 6.890625 -6.75 C 5.671875 -7.039062 4.679688 -7.332031 3.921875 -7.625 C 3.160156 -7.914062 2.507812 -8.367188 1.96875 -8.984375 C 1.425781 -9.609375 1.15625 -10.453125 1.15625 -11.515625 C 1.15625 -12.398438 1.394531 -13.207031 1.875 -13.9375 C 2.351562 -14.664062 3.078125 -15.242188 4.046875 -15.671875 C 5.023438 -16.097656 6.21875 -16.3125 7.625 -16.3125 C 8.613281 -16.3125 9.582031 -16.1875 10.53125 -15.9375 C 11.476562 -15.695312 12.296875 -15.347656 12.984375 -14.890625 L 12.046875 -12.578125 C 11.335938 -12.984375 10.597656 -13.296875 9.828125 -13.515625 C 9.066406 -13.734375 8.328125 -13.84375 7.609375 -13.84375 C 6.429688 -13.84375 5.550781 -13.640625 4.96875 -13.234375 C 4.394531 -12.835938 4.109375 -12.3125 4.109375 -11.65625 C 4.109375 -11.195312 4.273438 -10.820312 4.609375 -10.53125 C 4.941406 -10.238281 5.359375 -10.003906 5.859375 -9.828125 C 6.367188 -9.660156 7.054688 -9.472656 7.921875 -9.265625 C 9.117188 -8.984375 10.097656 -8.691406 10.859375 -8.390625 C 11.628906 -8.097656 12.285156 -7.644531 12.828125 -7.03125 C 13.378906 -6.414062 13.65625 -5.585938 13.65625 -4.546875 C 13.65625 -3.660156 13.410156 -2.859375 12.921875 -2.140625 C 12.441406 -1.421875 11.710938 -0.84375 10.734375 -0.40625 C 9.753906 0.0195312 8.554688 0.234375 7.140625 0.234375 Z M 7.140625 0.234375 "/></g></g></g><g fill="#005757" fill-opacity="1"><g transform="translate(26.65644, 21.830803)"><g><path d="M 9.109375 -5.671875 L 9.109375 0 L 6.109375 0 L 6.109375 -5.625 L -0.203125 -16.09375 L 2.984375 -16.09375 L 7.703125 -8.25 L 12.453125 -16.09375 L 15.40625 -16.09375 Z M 9.109375 -5.671875 "/></g></g></g><g fill="#005757" fill-opacity="1"><g transform="translate(52.557026, 21.830803)"><g><path d="M 7.140625 0.234375 C 5.898438 0.234375 4.703125 0.0546875 3.546875 -0.296875 C 2.390625 -0.648438 1.472656 -1.117188 0.796875 -1.703125 L 1.84375 -4.015625 C 2.5 -3.492188 3.304688 -3.066406 4.265625 -2.734375 C 5.222656 -2.410156 6.179688 -2.25 7.140625 -2.25 C 8.335938 -2.25 9.226562 -2.441406 9.8125 -2.828125 C 10.40625 -3.210938 10.703125 -3.71875 10.703125 -4.34375 C 10.703125 -4.800781 10.535156 -5.179688 10.203125 -5.484375 C 9.878906 -5.785156 9.460938 -6.019531 8.953125 -6.1875 C 8.453125 -6.351562 7.765625 -6.539062 6.890625 -6.75 C 5.671875 -7.039062 4.679688 -7.332031 3.921875 -7.625 C 3.160156 -7.914062 2.507812 -8.367188 1.96875 -8.984375 C 1.425781 -9.609375 1.15625 -10.453125 1.15625 -11.515625 C 1.15625 -12.398438 1.394531 -13.207031 1.875 -13.9375 C 2.351562 -14.664062 3.078125 -15.242188 4.046875 -15.671875 C 5.023438 -16.097656 6.21875 -16.3125 7.625 -16.3125 C 8.613281 -16.3125 9.582031 -16.1875 10.53125 -15.9375 C 11.476562 -15.695312 12.296875 -15.347656 12.984375 -14.890625 L 12.046875 -12.578125 C 11.335938 -12.984375 10.597656 -13.296875 9.828125 -13.515625 C 9.066406 -13.734375 8.328125 -13.84375 7.609375 -13.84375 C 6.429688 -13.84375 5.550781 -13.640625 4.96875 -13.234375 C 4.394531 -12.835938 4.109375 -12.3125 4.109375 -11.65625 C 4.109375 -11.195312 4.273438 -10.820312 4.609375 -10.53125 C 4.941406 -10.238281 5.359375 -10.003906 5.859375 -9.828125 C 6.367188 -9.660156 7.054688 -9.472656 7.921875 -9.265625 C 9.117188 -8.984375 10.097656 -8.691406 10.859375 -8.390625 C 11.628906 -8.097656 12.285156 -7.644531 12.828125 -7.03125 C 13.378906 -6.414062 13.65625 -5.585938 13.65625 -4.546875 C 13.65625 -3.660156 13.410156 -2.859375 12.921875 -2.140625 C 12.441406 -1.421875 11.710938 -0.84375 10.734375 -0.40625 C 9.753906 0.0195312 8.554688 0.234375 7.140625 0.234375 Z M 7.140625 0.234375 "/></g></g></g><g fill="#005757" fill-opacity="1"><g transform="translate(77.722189, 21.830803)"><g><path d="M 5.421875 -13.5625 L 0.09375 -13.5625 L 0.09375 -16.09375 L 13.75 -16.09375 L 13.75 -13.5625 L 8.40625 -13.5625 L 8.40625 0 L 5.421875 0 Z M 5.421875 -13.5625 "/></g></g></g><g fill="#005757" fill-opacity="1"><g transform="translate(102.266834, 21.830803)"><g><path d="M 14.234375 -2.5 L 14.234375 0 L 2.15625 0 L 2.15625 -16.09375 L 13.90625 -16.09375 L 13.90625 -13.578125 L 5.15625 -13.578125 L 5.15625 -9.40625 L 12.921875 -9.40625 L 12.921875 -6.9375 L 5.15625 -6.9375 L 5.15625 -2.5 Z M 14.234375 -2.5 "/></g></g></g><g fill="#005757" fill-opacity="1"><g transform="translate(128.374259, 21.830803)"><g><path d="M 16.9375 0 L 16.921875 -10.671875 L 11.625 -1.84375 L 10.296875 -1.84375 L 5.015625 -10.53125 L 5.015625 0 L 2.15625 0 L 2.15625 -16.09375 L 4.625 -16.09375 L 11.015625 -5.421875 L 17.28125 -16.09375 L 19.75 -16.09375 L 19.765625 0 Z M 16.9375 0 "/></g></g></g><g fill="#005757" fill-opacity="1"><g transform="translate(161.031554, 21.830803)"><g><path d="M 7.140625 0.234375 C 5.898438 0.234375 4.703125 0.0546875 3.546875 -0.296875 C 2.390625 -0.648438 1.472656 -1.117188 0.796875 -1.703125 L 1.84375 -4.015625 C 2.5 -3.492188 3.304688 -3.066406 4.265625 -2.734375 C 5.222656 -2.410156 6.179688 -2.25 7.140625 -2.25 C 8.335938 -2.25 9.226562 -2.441406 9.8125 -2.828125 C 10.40625 -3.210938 10.703125 -3.71875 10.703125 -4.34375 C 10.703125 -4.800781 10.535156 -5.179688 10.203125 -5.484375 C 9.878906 -5.785156 9.460938 -6.019531 8.953125 -6.1875 C 8.453125 -6.351562 7.765625 -6.539062 6.890625 -6.75 C 5.671875 -7.039062 4.679688 -7.332031 3.921875 -7.625 C 3.160156 -7.914062 2.507812 -8.367188 1.96875 -8.984375 C 1.425781 -9.609375 1.15625 -10.453125 1.15625 -11.515625 C 1.15625 -12.398438 1.394531 -13.207031 1.875 -13.9375 C 2.351562 -14.664062 3.078125 -15.242188 4.046875 -15.671875 C 5.023438 -16.097656 6.21875 -16.3125 7.625 -16.3125 C 8.613281 -16.3125 9.582031 -16.1875 10.53125 -15.9375 C 11.476562 -15.695312 12.296875 -15.347656 12.984375 -14.890625 L 12.046875 -12.578125 C 11.335938 -12.984375 10.597656 -13.296875 9.828125 -13.515625 C 9.066406 -13.734375 8.328125 -13.84375 7.609375 -13.84375 C 6.429688 -13.84375 5.550781 -13.640625 4.96875 -13.234375 C 4.394531 -12.835938 4.109375 -12.3125 4.109375 -11.65625 C 4.109375 -11.195312 4.273438 -10.820312 4.609375 -10.53125 C 4.941406 -10.238281 5.359375 -10.003906 5.859375 -9.828125 C 6.367188 -9.660156 7.054688 -9.472656 7.921875 -9.265625 C 9.117188 -8.984375 10.097656 -8.691406 10.859375 -8.390625 C 11.628906 -8.097656 12.285156 -7.644531 12.828125 -7.03125 C 13.378906 -6.414062 13.65625 -5.585938 13.65625 -4.546875 C 13.65625 -3.660156 13.410156 -2.859375 12.921875 -2.140625 C 12.441406 -1.421875 11.710938 -0.84375 10.734375 -0.40625 C 9.753906 0.0195312 8.554688 0.234375 7.140625 0.234375 Z M 7.140625 0.234375 "/></g></g></g></g></g></g></g></g></svg>